<?xml version="1.0" standalone="no"?>
<!DOCTYPE svg PUBLIC "-//W3C//DTD SVG 1.1//EN" "http://www.w3.org/Graphics/SVG/1.1/DTD/svg11.dtd">
<svg xmlns="http://www.w3.org/2000/svg">
<metadata>Generated by Fontastic.me</metadata>
<defs>
<font id="iot" horiz-adv-x="512">
<font-face font-family="iot" units-per-em="512" ascent="480" descent="-32"/>
<missing-glyph horiz-adv-x="512" />

<glyph glyph-name="doc-sach" unicode="&#100;" d="M0 411c29 0 58 0 87 0 4 0 5-1 5-5 0-7 0-14 0-21 0-93 0-186 0-279 0-7 0-7-8-7-28 0-56 0-84 0 0 104 0 208 0 312z m46-226c-16 0-29-12-29-28 0-16 13-28 28-29 16 0 29 13 29 28 0 17-13 29-28 29z m-46 290c16 0 32 0 47 0 14 0 26 0 40 0 3 0 5-1 5-5 0-12 0-24 0-37 0-3-1-4-5-4-29 0-58 0-87 0 0 15 0 30 0 46z m0-394c29 0 57 0 86 0 5 0 6-2 6-6-1-8-1-17 0-26 0-4-2-6-7-6-28 0-57 0-85 0 0 13 0 26 0 38z m110 138c0 35 0 70 0 106 0 6 0 6 6 4 33-9 66-11 99-3 4 1 7 2 11 3 3 1 4 0 4-3 0-1 0-2 0-3 0-69 0-138 0-208 0-7 0-7-8-5-19 6-39 8-60 7-16-1-32-3-48-9-4-2-4 1-4 4 0 15 0 30 0 44 0 21 0 42 0 63z m146 36c0 34 0 69 0 103 0 7 0 7 8 7 26 0 52 0 78 0 6 0 7 0 7-6 0-70 0-139 0-208 0-5-2-7-7-7-27 0-53 1-80 0-5 0-6 2-6 7 0 35 0 70 0 104z m184-159c-4 0-4 2-5 5-4 18-8 37-11 55-16 79-33 158-49 237-1 9-2 9 7 10 16 3 32 7 49 10 4 1 6 0 8-5 10-49 20-98 30-147 10-48 20-97 30-145 1-7 1-8-6-9-17-4-34-7-50-11-2 0-3 0-3 0z m37 59c0 10-2 17-7 23-9 12-25 11-33-1-7-12-3-32 8-41 9-8 20-6 27 3 4 5 6 11 5 16z m-307-112c-18 0-35 0-52 0-8 0-8 0-8 9 0 9 0 19 0 29 0 4 1 7 6 8 13 6 28 9 42 10 21 1 42 1 63-7 9-3 9-3 9-13 0-10 0-19 0-28 0-8 0-8-8-8-18 0-35 0-52 0z m0 341c18 0 36 0 54 0 4 0 6-2 6-7 0-7 0-14 0-22 0-4-1-6-4-7-11-6-23-8-35-9-23-1-46 0-68 7-13 4-13 3-13 17 0 5 0 9 0 14 0 5 2 7 7 7 17-1 35 0 53 0z m133 45c-14 0-28 0-41 0-4 0-6 1-6 6 0 11 0 23 0 35 0 4 1 5 6 5 27 0 54 0 81 0 4 0 6-1 6-5 0-12 0-24 0-35 0-4-1-6-6-6-13 0-27 0-40 0z m-1-386c-13 0-26 0-40 0-4 0-6 2-6 7 0 8 0 17 0 26 0 4 1 5 5 5 28 0 55 0 82 0 4 0 6-1 6-5 0-9 0-18 0-27 0-4-2-6-6-6-14 0-27 0-41 0z m131 392c0-4-2-4-4-4-14-3-27-6-41-8-4-1-9-2-14-3-3-1-4 0-5 3-2 12-5 25-7 38-1 2 0 4 2 4 19 4 38 8 57 12 2 0 4 0 4-2 2-14 5-27 8-40z m-130-24c13 0 26 0 39 0 7 0 7 0 7-7 0-5 0-11 0-16 0-4-2-5-5-5-27 0-55 0-83 0-4 0-5 2-5 5 0 6 0 12 0 18 0 4 2 6 6 6 13-1 27-1 41-1z m0-312c-14 0-28 0-41 0-4 0-6 1-6 5 0 6 0 12 0 18 0 4 1 5 5 5 28 0 56 0 83 0 3 0 5-1 5-4 0-7 0-13 0-19 0-4-2-5-6-5-13 0-27 0-40 0z m198-8c2 0 3-2 3-4 2-10 4-19 6-29 1-4-2-4-4-5-14-2-28-5-41-8-5-1-9-2-13-2-3-1-5 0-6 3-1 9-3 19-5 28-1 3 0 5 3 5 18 4 37 8 55 11 1 1 1 1 2 1z"/>
<glyph glyph-name="downlight" unicode="&#101;" d="M211 349l-9 0-26-36 0-8 35 0z m91 0l9 0 26-36 0-8-35 0z m-80 0l9 0 0-45-9 0z m20 0l9 0 0-45-9 0z m20 0l10 0 0-45-10 0z m20 0l9 0 0-45-9 0z m-156-50l-70-82 5-8 391 0 5 9-66 81z m-125-106l0-9 25-25 461 0 25 25 0 9z"/>
<glyph glyph-name="hang-ngay" unicode="&#102;" d="M256 512c-141 0-256-115-256-256 0-141 115-256 256-256 141 0 256 115 256 256 0 141-115 256-256 256z m0-484c-63 0-120 25-161 67-16 16-30 35-41 56-17 32-26 67-26 105 0 126 102 229 228 229 60 0 114-23 155-61 21-20 38-43 51-69 14-30 22-63 22-98 0-127-102-229-228-229z m-56 285c0-15-12-27-27-27-16 0-28 12-28 27 0 16 12 28 28 28 15 0 27-12 27-28z m171 0c0-15-12-27-28-27-15 0-27 12-27 27 0 16 12 28 27 28 16 0 28-12 28-28z m-115-199c53 0 104 28 134 73l-24 15c-27-42-76-65-125-60-39 5-74 27-95 60l-24-15c26-40 69-67 116-72 6 0 12-1 18-1z"/>
<glyph glyph-name="thao-luan" unicode="&#104;" d="M392 379c0-15-12-25-20-32-3-2-9-7-9-9 0-7-5-12-12-12-7 0-13 5-13 12 0 14 10 22 18 29 6 5 10 9 10 13 0 6-5 12-12 12-7 0-13-6-13-12 0-7-5-13-12-13-8 0-13 5-13 13 0 20 17 38 38 38 21-1 38-18 38-39z m-41-65c-7 0-13-5-13-13 0-6 5-13 13-13 7 0 13 6 13 13 0 7-6 13-13 13z m-256-88c-7 0-13-6-13-13 0-8 6-13 13-13l1 0c7 0 13 5 13 13 0 7-5 13-13 13z m44 0c-7 0-13-6-13-13 0-8 6-13 13-13l1 0c7 0 13 5 13 13 0 7-5 13-13 13z m373 202l0-143c0-33-27-61-61-61l-165 0c-3 0-6 0-8 0-2 0-4 0-6 0-1-1-3-3-6-5 0-1-2-2-3-4l-46-42c-4-3-10-4-14-2-4 2-8 6-8 11l0 135-133 0c-19 0-36-16-36-36l0-143c0-19 17-35 36-35l184 0c3 0 6-1 8-3l39-35 0 120c0 7 5 13 12 13 8 0 13-6 13-13l0-149c0-6-3-10-7-12-2-1-4-1-6-1-3 0-6 1-8 3l-56 51-179 0c-34 0-62 27-62 61l0 143c0 34 28 62 62 62l133 0 0 85c0 34 28 61 62 61l194 0c34 0 61-27 61-61z m-25 0c0 20-16 36-36 36l-195 0c-19 0-36-16-36-36l0-217 26 23c1 2 2 2 3 3 12 11 15 13 30 12 2 0 4 0 7 0l165 0c20 0 36 16 36 36z"/>
<glyph glyph-name="thu-gian" unicode="&#105;" d="M0 313c2 8 5 15 10 22 12 14 27 20 45 18 4 0 5 1 6 5 6 31 33 54 65 54 85 0 171 0 257 0 34 0 60-21 67-54 1-4 2-5 6-5 36 4 63-28 53-62-4-16-15-27-29-32-5-1-7-4-7-9 1-23 0-47 0-70 0-11-3-20-13-26-2-1-3-2-2-4 3-6 1-12-3-16-3-4-4-7-4-12 0-7-2-9-9-9-6 0-11 0-17 0-4 0-7 3-7 7 1 6 0 11-5 15-3 3-4 7-3 11 1 4-1 5-4 5-1 0-2 0-3 0-98 0-197 0-296 0-6 0-7 0-6-7 0-4-1-8-5-10-3-4-4-7-4-11 0-9-1-10-10-10-5 0-10 0-15 0-5 0-8 2-7 7 0 6-1 11-5 16-4 3-4 8-2 13 1 3 0 4-3 6-9 5-13 14-13 24 0 24 0 48 0 72 0 5-1 7-5 9-16 5-26 16-31 33-1 1-1 2-2 4 1 5 1 10 1 16z m256 89c-39 0-79 0-118 0-5 0-10 0-15-1-27-3-47-21-52-48 0-4 1-6 4-7 4-3 9-7 12-12 8-10 11-21 11-33 0-13 0-26 0-39 0-4 0-5 4-4 16 5 33 6 50 7 19 1 39 1 58-1 15-1 30-3 43-9 2-1 4-1 5 0 7 3 14 5 21 6 28 5 57 5 86 4 14-1 29-3 43-7 4-1 5 0 5 4 0 13 0 26 0 39 1 19 8 35 24 45 2 1 4 3 3 6-4 22-17 38-38 46-8 3-16 3-24 3-40 1-81 1-122 1z m0-242c61 0 122 0 183 0 4 0 7 0 10 1 8 2 13 8 13 16 0 24 0 49 0 74 0 3-1 5-4 5-6 0-12 2-17 5-3 1-5 4-4 7 2 3 4 3 8 2 0 0 2 0 2 0 28-11 54 8 53 37 0 14-11 28-25 33-14 5-31 1-41-10-7-8-10-18-10-28 0-26 0-51 0-76 0-14-5-20-20-21-1 0-2 0-4 0-97 0-193 0-290 0-2 0-3 0-5 0-14 1-19 7-19 20 0 26 0 52 0 78 0 24-19 42-43 39-17-3-31-17-33-33-1-23 14-38 30-41 9-2 17-1 25 3 4 1 7 1 8-3 2-3 0-6-4-7-4-2-9-4-14-5-6 0-6-2-6-7 0-23 0-46 0-69 0-13 5-19 18-20 2 0 4 0 6 0 61 0 122 0 183 0z m80 56c24 0 47 0 70 0 6 0 7 2 8 7 0 5 0 10 0 15 0 7-1 8-8 10-13 3-27 5-40 6-22 2-45 1-67-1-11-1-22-2-33-6-4-1-5-3-5-7 1-6 1-11 0-17 0-5 2-6 7-6 22 0 45-1 68-1z m-161 0c24 0 47 0 70 0 4 0 6 1 6 6-1 6-1 11 0 17 0 5-2 7-7 8-13 4-28 6-42 7-22 2-45 1-67-1-10-1-20-3-30-5-5-2-7-4-7-9 0-5 0-9 0-14 0-8 1-9 8-9 23 0 46 0 69 0z m259-66c-2 0-4 0-7 0-6-2-8-7-3-11 4-3 6-7 6-13-1-4 3-3 5-3 2 0 6-1 5 3 0 6 2 10 6 14 4 3 3 8-2 9-3 1-6 1-10 1z m-358-27c3-1 6 0 6 4-1 5 1 9 5 12 2 1 3 4 2 7-1 3-3 4-6 4-4 0-8 1-12 0-4 0-6 0-8-4-1-3 1-6 4-7 3-3 5-7 4-11 0-4 2-6 5-5z m174 245c4-4 8-3 12 0 2 1 4 0 6-2 1-2 1-4 0-6-3-3-4-5 0-9 2-2 1-4-1-6-2-2-4-3-7-1-3 2-5 3-8 0-2-2-5-2-7 0-2 3-2 5 0 7 3 3 2 6 0 9-2 1-2 4-1 6 1 2 3 2 6 2z m116-62c-6-4-3-9-1-14 2-4-4-7-8-4-3 2-5 3-8 0-2-2-6-2-8 0-2 3-1 6 1 8 2 2 2 4 0 7-3 2-3 5 0 8 2 2 5 2 7-1 3-2 5-3 7 0 2 2 4 2 6 1 2 0 3-2 4-5z m-201-19c-4 5-9 2-14 0-1-1-3 1-4 2-1 2-1 4 0 6 3 3 3 6 0 9-2 2-1 4 1 7 2 2 4 2 7 0 2-2 4-3 8 0 2 2 5 2 7 0 3-3 2-6 0-8-3-2-3-4 0-7 1-1 2-3 1-6-1-2-3-3-6-3z m103 5c0-4-5-7-8-4-3 2-5 3-8 0-2-2-6-2-8 0-2 3-2 5 1 8 2 2 3 4 0 7-2 2-3 5 0 8 3 2 5 2 8-1 2-3 4-2 7 0 2 2 4 3 7 1 2-3 3-6 0-8-3-3-3-5 0-8 1 0 1-2 1-3z m77 51c-4 0-6 5-4 9 3 3 3 5 0 8-2 2-2 4 0 7 2 2 5 2 7 0 4-3 6-3 9 0 2 2 5 2 7-1 2-2 2-5 0-7-3-2-3-4 0-7 2-3 2-5 0-8-3-2-6-2-8 1-2 2-4 2-7 0 0-2-2-2-4-2z m-193 25c4-4 9-3 14 0 2 1 4-1 5-2 1-2 1-4-1-6-3-3-3-5 0-9 2-2 2-4-1-7-2-2-5-2-7 0-3 3-5 3-8 0-2-2-4-2-7 1-2 2-2 4 0 6 3 3 3 6 0 9-2 2-2 4-1 6 2 1 4 2 6 2z m-81-63c0-12-10-22-22-23-12 0-23 11-23 23 0 12 11 22 23 22 11 0 22-10 22-22z m-11 0c0 6-5 11-12 11-6 0-11-6-11-11 1-6 6-12 12-11 6 0 11 5 11 11z m381 0c0 12 10 22 22 22 12 0 22-10 22-22 0-12-10-23-22-22-12-1-22 10-22 22z m33 0c0 6-5 11-11 11-6 0-11-5-11-11 0-6 5-11 11-11 5-1 11 5 11 11z"/>
<glyph glyph-name="ti-vi" unicode="&#106;" d="M415 423l-82 0c-12 9-26 16-41 21l31 31c6 6 6 15 0 20-6 6-14 6-20 0l-43-44c-1 0-1-1-2-2 0 0-1 0-2 0-1 0-2 0-2 0 0 1-1 2-2 2l-43 44c-6 5-14 5-20 0-5-6-5-14 0-20l32-31c-15-5-29-12-41-21l-83 0c-53 0-97-44-97-97l0-190c0-53 44-97 97-97l1 0 0-9c0-9 7-17 16-17l10 0c9 0 17 7 17 17l0 9 231 0 0-5c0-9 7-17 16-17l10 0c9 0 16 7 16 17l0 5 2 0c53 0 96 44 96 97l0 190c0 54-43 97-97 97z m-294-329c-34 0-62 28-62 62l0 149c0 34 28 62 62 62l209 0c34 0 62-28 62-62l0-150c0-33-28-62-62-62l-209 0z m330 75c-9 0-16 7-16 16 0 9 7 16 16 16 8 0 15-7 15-16 0-9-7-16-15-16z m0 46c-9 0-16 7-16 16 0 9 7 16 16 16 8 0 15-7 15-16 0-9-7-16-15-16z m0 47c-9 0-16 6-16 15 0 9 7 16 16 16 8 0 15-7 15-16 0-9-7-15-15-15z"/>
<glyph glyph-name="den-chum" unicode="&#98;" d="M301 512c4-4 3-8 2-12-4-14-15-22-28-27-4-2-5-3-5-7 1-9 3-17-2-25-1-1 0-2 0-3 4-11 4-22 0-32 0-2 0-2 0-4 4-10 4-21 0-32-1-1 0-2 0-3 5-11 5-22 0-32 0-2 0-3 0-4 5-10 4-21 0-31 0-1-1-2 0-3 5-7 3-15 3-23 0-6 0-6 7-6 10 0 19 0 29 0 2 0 6 0 7-4 1-2 0-5-2-8-5-7-10-14-13-22-3-7-3-13 2-19 11-15 19-32 22-51 3-19-6-36-22-46-1 0-2 0-3-2 6-2 12-5 17-8 18-11 26-27 26-47 0-8 0-15 0-22 1-12 8-18 18-23 8-4 16-2 23 4 5 4 6 9 5 15-1 6-4 9-9 11-7 2-14-2-14-8 0-6 5-9 10-6 4 2 7 2 9-2 2-4-1-6-4-9-5-4-13-3-19 1-6 4-9 13-8 19 2 10 11 17 21 17 9 1 20-6 23-15 2-6 3-11 2-17 0-1-1-3 0-5 6 5 10 11 10 19 1 5 1 9-5 11-5 2-7 8-7 14 1 4 0 5-3 6-8 3-15 8-19 16 0 2-2 2-3 3-22 11-29 34-23 57 5 16 12 31 22 44 3 3 3 6 2 9-2 10-7 19-13 27-2 3-6 6-4 10 3 5 7 4 11 4 32 0 65 0 97 0 4 0 9 1 11-3 2-5-1-8-4-11-6-8-11-17-13-27-1-3-1-6 2-9 11-14 19-31 23-49 3-15 2-29-9-40-8-9-19-16-27-26-1-1-2-1-3-2-6-2-12-4-10-13 0-5-4-8-8-10-3-2-4-3-4-6 0-19-10-32-27-39-18-7-36-4-51 8-9 7-14 16-14 29 0 8 1 17 0 26-2 18-14 29-30 35-5 3-10 4-15-1-1 0-2-1-2-1-6-2-12-4-10-13 0 0 0 0 0 0-2-9-10-14-22-12-8 1-14 7-14 15 1 5-1 7-5 8-2 1-4 2-6 3-5 5-10 4-15 1-6-2-12-5-17-9-9-8-13-17-13-29 0-7 0-14 0-21 0-17-8-29-24-37-22-12-51-4-63 16-4 7-5 14-5 21 0 2-1 4-4 6-6 3-9 8-8 15 0 3-1 4-3 5-8 3-16 8-20 16 0 2-2 3-4 4-19 11-28 30-23 51 4 18 13 35 24 49 2 3 3 5 2 9-2 9-6 17-12 24-1 3-3 5-5 7-2 5-1 9 5 10 0-2 2-2 4-2 33 0 66 0 98 0 2 0 3 0 4 0 7-1 9-5 5-11-4-6-9-12-12-19-1-2-2-5-3-8-2-5-1-9 2-14 10-13 18-29 22-46 5-23-3-41-23-52-2-1-3-2-4-4-3-8-10-12-18-15-3-1-5-3-4-7 1-6-3-12-9-14-2-2-3-4-3-6-1-8 2-15 7-20 1-1 2-1 3-2 0-1 1 0 2-1-2 7-3 13-1 19 4 10 10 16 19 18 9 2 17-1 23-8 5-7 6-16 0-24-4-6-12-9-19-6-3 1-5 2-7 4-1 3-2 5 0 7 2 2 4 3 7 2 0 0 1 0 1 0 3-3 7-3 9 1 2 4 1 9-4 11-5 3-13 1-16-5-5-11 2-23 15-25 14-2 29 11 29 25 1 10 0 19 1 28 1 20 12 33 28 42 5 3 10 5 16 7-5 2-9 4-12 8-13 12-17 27-13 45 4 18 12 34 23 48 3 4 3 7 2 11-2 10-7 17-13 25-2 3-6 7-4 11 2 5 7 3 11 3 9 0 18 0 26 0 4 0 6 1 6 5-1 6-2 12 0 17 2 6 1 11 0 17-2 8-3 17 2 25 1 2 1 3 0 4-4 10-4 21 0 32 1 1 1 3 0 4-4 10-4 21 0 31 1 2 1 3 0 5-4 10-4 21 0 31 1 1 2 2 1 3-5 8-3 18-3 26 0 4 0 5-4 6-13 5-24 12-28 27-3 4-4 8 1 12 31 0 62 0 94 0z m-48-387c10 0 20 0 29 0 5 0 9 1 12 3 13 8 19 21 15 37-3 16-10 30-19 43-2 2-4 3-8 3-19 0-39 0-58 0-4 0-6-1-8-4-5-7-9-15-13-23-4-9-7-19-7-30 0-16 15-31 31-30 9 1 18 1 26 1z m161-28c9 0 19 0 29 0 4 0 8 1 12 3 12 8 18 21 16 35-3 16-11 30-20 44-2 4-5 5-9 4-18 0-37 0-56 0-5 0-8-2-10-6-4-6-8-13-12-21-4-10-8-20-6-32 1-16 17-29 29-28 9 2 18 1 27 1z m-321 0c10 0 20 0 30 0 3 0 5 0 7 1 14 7 21 18 20 34-2 18-11 34-21 49-2 2-4 2-7 2-19 0-39 0-58 0-4 0-6-1-8-4-8-12-15-25-19-40-2-8-2-16 1-23 4-11 15-19 27-19 10 0 18 0 28 0z m161 404c-10 0-20 0-30 0-3 0-5 1-7-1-1-3 2-4 3-6 1-1 1-2 2-2 11-9 23-12 36-11 12 1 22 5 30 14 1 1 3 3 2 5-1 1-3 1-5 1-11 0-21 0-31 0z m0-246c-5 0-10 0-14 0-4 0-5-1-3-4 2-5 4-10 5-15 3-13 3-13 17-13 3 0 4 2 5 5 1 8 2 16 6 24 1 2 0 4-2 3-5 0-10 0-14 0z m160-28c-5 0-10 0-14 0-3 0-4-1-3-4 4-7 6-15 7-24 0-2 1-4 4-4 4 0 8 0 12 0 3 0 4 1 5 4 0 8 2 16 6 24 1 3 0 4-2 4-6 0-10 0-15 0z m-321 0c-4 0-8 0-13 0-4 0-5 0-3-4 3-8 5-15 6-23 0-3 1-5 4-5 4 0 8 0 11 0 4 0 5 2 5 5 1 8 3 16 7 24 1 3 0 4-3 4-4-1-9-1-14-1z m135-114c9-11 44-10 50 0-16 0-32 0-50 0z m223 114c-4 1-6-1-7-4-5-7-7-15-8-24 0-2 0-4 3-4 2 0 5-1 5 3 2 9 5 16 10 23 1 2 2 3 1 5-1 2-3 1-4 1z m-160 28c-4 1-6-1-8-4-4-7-7-14-7-22-1-3-1-5 2-6 4 0 5 1 6 5 2 8 5 16 10 23 2 3 1 5-3 4z m-236-28c-1 0-6 2-3-4 5-8 9-16 11-25 0-3 3-3 5-3 3 0 3 2 3 4-2 9-4 17-8 24-2 3-4 5-8 4z m13-142c11-11 44-8 49 0-16 0-32 0-49 0z m321 0c9-10 44-10 49 0-16 0-32 0-49 0z m-270 110c3 0 4 2 4 4 1 8 5 15 9 22 0 2 4 4 2 5-3 2-7 2-10-1 0-1-1-2-2-3-4-7-6-15-7-23-1-2 1-4 4-4z m257 32c0-1-6 2-3-3 5-8 9-17 11-26 0-3 3-3 5-3 3 0 3 2 3 4-2 9-4 16-8 24-2 3-4 5-8 4z m-161 28c-1 0-2 1-3-1-1-1 1-2 1-4 5-7 8-14 10-22 1-4 3-5 6-5 3 1 3 4 3 6-2 7-4 15-8 22-2 3-5 5-9 4z m44 131c0 2 0 5 0 7-1 3-3 5-6 5-3 0-5-2-5-5-1-5-1-9 0-14 0-3 2-5 6-5 3 0 4 2 5 5 0 3 0 5 0 7z m-11-36c0-1 0-3 0-5 0-3 1-6 6-6 4 0 5 3 5 6 0 4 0 8 0 11 0 4-2 6-6 6-4 0-5-2-5-6 0-2 0-4 0-6z m11-36c0 3 0 5 0 8-1 3-3 5-6 4-3 0-5-1-5-4-1-5-1-10 0-15 0-3 3-4 6-4 2 0 4 2 5 4 0 2 0 5 0 7z m-11 109c0-3 0-5 0-8 0-3 2-5 6-5 3 0 4 2 5 5 0 5 1 9 0 14-1 2-3 4-6 4-3 0-5-2-5-4 0-2 0-5 0-6z m11 34c0 2 0 4 0 6-1 4-2 6-5 6-4 0-6-2-6-5-1-4-1-9 0-13 0-3 2-5 5-5 3 0 5 3 6 5 0 2 0 4 0 6z m0-178c0 2 0 3 0 5 0 4-2 6-6 6-3 0-5-2-5-6-1-4-1-7 0-11 0-3 2-6 6-6 3 0 5 3 5 6 0 2 0 4 0 6z"/>
<glyph glyph-name="den-trang-tri" unicode="&#107;" d="M506 235l-165 91 0 20c0 5-4 9-9 9l-17 0 0 17 9 0c5 0 8 3 8 8l0 26c0 4-4 8-8 8l-43 0 0 26c0 5-4 8-8 8l-9 0 0 43c0 5-4 8-8 8-5 0-8-3-8-8l0-43-9 0c-5 0-8-3-8-8l0-26-43 0c-5 0-8-4-8-8l0-26c0-5 4-8 8-8l9 0 0-17-17 0c-5 0-9-4-9-9l0-20-165-91c-4-2-6-6-4-10 0-4 4-6 8-6l160 0-14-85c-5-30 3-60 23-83 20-23 48-37 78-37 30 0 58 14 78 37 19 22 27 53 23 83l-15 85 161 0c4 0 7 2 8 6 0 4-2 8-6 10z m-259 197l17 0 0-17-17 0z m-51-34l119 0 0-9-119 0z m17-26l85 0 0-16-85 0z m-26-34l136 0 0-8-136 0z m152-207c4-25-2-50-18-69-16-19-41-30-65-30-26 0-49 11-65 30-16 19-24 44-19 69l15 88 28 0c-1-3-2-6-2-9 0-14 12-25 26-25l9 0 0-17-9 0c-14 0-26-12-26-26 0-14 12-26 26-26l9 0 0-25c0-5 4-9 8-9 5 0 8 4 8 9l0 25 9 0c5 0 8-4 8-8 0-4-4-8-8-8-5 0-9-4-9-9 0-5 4-8 9-8 14 0 26 11 26 25 0 14-12 26-26 26l-9 0 0 17 9 0c14 0 26 12 26 26 0 14-12 25-26 25l-9 0 0 17 61 0z m-101 88l9 0 0-17-9 0c-4 0-8 4-8 9 0 4 4 8 8 8z m26-34l8 0c5 0 9-4 9-8 0-5-4-9-9-9l-8 0z m-17-34l0-17-8 0c-5 0-9 4-9 8 0 5 4 9 9 9z m85 85l-291 0 140 77 148 0 140-77z"/>
<glyph glyph-name="den-tuong" unicode="&#108;" d="M0 104c2 10 3 20 6 30 12 47 40 82 81 107 25 15 53 23 83 25 10 0 20 0 29 0 4 0 6 2 6 5 3 27 14 50 31 70 21 25 47 39 79 44 15 2 30 2 46 2 14 0 28 0 42 0 5 0 7 1 8 6 6 19 19 32 39 38 4 1 5 3 5 7 0 21 0 42 0 63 0 7 0 7 7 7 15 0 29 0 44 0 4 0 6-1 6-6 0-83 0-167 0-250 0-4-2-6-6-6-15 0-30 0-45 0-4 0-6 2-6 6 0 22 0 43 0 64 0 4-1 6-6 7-19 6-32 19-38 38-1 5-4 6-8 6-24 0-48 0-72 0-53-1-98-42-106-93 0-1 0-3-1-4 0-3 1-4 4-4 10 0 19 0 29-1 44-2 82-17 114-48 33-30 51-68 56-113 1-6 1-12 1-19 0-6-1-6-7-6-39 0-78 0-117 0-6 0-8-1-9-7-7-34-33-60-66-66-46-8-88 20-98 66-2 7-2 7-9 7-41 0-82 0-123 0 1 8 1 17 1 25z m214-6c34 0 69 0 103 0 2 0 3 0 5 0 2 0 3 2 3 4 0 18 2 36-2 54-12 59-65 97-125 89-46-6-84-42-93-89-3-16-2-34-2-51 0-7 0-7 7-7 34 0 69 0 104 0z m-78 142c-63-15-110-72-116-137 0-4 2-5 4-5 18 0 36 0 53 0 5 0 6 2 6 6 0 12 0 24 1 37 1 26 10 50 25 71 7 11 17 20 27 28z m156 1c0-3 2-3 3-4 26-21 42-49 48-83 1-8 1-16 2-23 0-11-2-21 0-32 11-2 22 0 32-1 6 0 13 0 19 0 16 0 13-1 10 14-6 40-25 73-57 99-16 14-35 24-57 30z m-78-162c-19 0-39 0-59 0-5 0-5 0-4-6 3-11 8-21 17-30 17-17 39-23 62-17 24 6 39 23 46 47 2 6 1 6-5 6-18 0-37 0-57 0z m261 299c0-34 0-68 0-102 0-11-2-10 10-10 8 0 8 0 8 8 0 68 0 136 0 203 0 12 1 11-11 11-7 0-7 0-7-8 0-34 0-68 0-102z m-20-1c0 10 0 21 0 31 0 4 0 4-4 3-13-5-22-18-22-33-1-15 8-29 21-35 4-2 5-1 5 4 0 11 0 21 0 30z"/>
<glyph glyph-name="di-ngu" unicode="&#109;" d="M0 153c0 43 0 86 0 129 5 11 14 15 26 15 153 0 307 0 460 0 12 0 20-4 26-15 0-43 0-86 0-129-4-11-12-15-23-16-4 0-5-2-4-5 3-6 5-13 7-19 3-9 0-15-6-18-7-2-13 1-16 10-3 8-6 16-8 25-3 7-3 7-11 7-81 0-161 0-241 0-50 0-99 0-149 0-5 0-8-1-9-7-3-8-6-16-9-24-1-2-1-4-2-5-3-6-9-8-14-6-6 2-9 7-7 14 2 8 5 15 8 23 1 4 0 5-4 5-12 1-20 5-24 16z m256 267c51 0 103 0 154 0 30 0 52-20 55-48 1-13 1-26 1-39 0-2 0-5 0-7 0-7-1-7-8-7-4 0-5 1-6 5-1 24-20 45-48 45-36 1-71 1-106 0-16 0-30-6-40-18-2-3-3-3-5 0-10 13-24 19-41 19-34 0-68 0-103 0-24 0-42-14-49-38 0-3 0-6-1-10 0-4-4-3-7-4-3 0-6 0-6 4 1 18-1 36 1 53 4 26 26 45 53 45 52 0 104 0 156 0z m-95-101c-24 0-48 0-73 0-7 0-8 1-6 9 2 10 9 17 20 19 3 1 6 1 10 1 33 0 66 0 99 0 8 0 15-1 21-7 5-4 8-9 9-15 1-6 0-7-6-7-19 0-38 0-58 0-5 0-10 0-16 0z m189 0c-24 0-48 0-73 0-7 0-7 1-6 7 1 10 10 19 21 21 3 0 6 1 10 1 32 0 65 0 98 0 6 0 12-1 18-4 7-4 11-11 13-19 1-5 0-7-6-7-25 1-50 1-75 1z"/>
<glyph glyph-name="nghe-nhac" unicode="&#111;" d="M484 510c-2 2-5 3-8 3l-288-38c-5 0-8-4-8-9l0-337c-16 19-41 31-70 31-49 0-88-36-88-79 0-43 40-79 88-79 49 0 89 36 89 79 0 3-1 6-1 9 0 1 1 2 1 3l0 270 269 35 0-176c-16 18-41 30-70 30-49 0-88-35-88-78 0-44 40-79 88-79 49 0 89 35 89 79 0 1 0 1 0 2 0 1 0 1 0 1l0 327c0 2-1 5-3 6z"/>
<glyph glyph-name="quat" unicode="&#112;" d="M295 512c40-10 79-24 114-50 87-66 124-182 90-285-35-105-132-175-242-176-121 0-222 80-251 197-2 7-4 13-6 19 0 27 0 53 0 80 2 6 4 11 5 17 15 65 51 115 105 154 31 23 68 34 105 44 27 0 53 0 80 0z m-40-482c123 0 226 102 226 226 1 125-102 228-226 228-124 0-226-102-227-226 0-125 102-228 227-228z m-84 363c-2 23 12 40 32 50 37 19 75 18 112-4 22-14 30-36 26-62-8-37-29-66-55-93-5-4-10-6-16-3-6 3-14 5-20 2-19-9-29 3-39 16-21 28-40 55-40 94z m-100-185c0 40 12 57 41 68 35 13 70 8 104-1 1 0 2 0 2-1 10-19 29-40 28-59-3-30-20-60-45-82-26-25-53-27-83-6-31 23-46 53-47 81z m368 5c-2-40-21-71-56-92-23-14-49-9-71 10-27 22-44 52-47 85-2 18 13 49 29 56 33 16 72 16 108 1 26-11 39-31 37-60z"/>
<glyph glyph-name="ra-phong" unicode="&#113;" d="M169-1c-8 4-10 11-10 19 0 15 0 30 0 45 0 5 2 6 6 6 6 0 12 0 18 0 4 0 5-1 5-5 0-9 0-19 0-29 0-7 0-7 7-7 49 0 99 0 148 0 34 0 68 0 102 0 7 0 7 0 7 7 0 147 0 294 0 441 0 7 0 7-7 7-83 0-167 0-249 0-7 0-7 0-7-7 0-31 0-62 0-93 0-7 0-7-7-7-5 0-11 0-16 0-5-1-6 1-6 6 0 33 0 67 0 100 0 4 0 8 0 11-1 9 2 15 10 19 100 0 200 0 301 0 7-4 10-10 10-19 0-158 0-316 0-475 0-8-3-14-10-18-101-1-201-1-302-1z m53 215c-5-5-5-6 1-10 14-9 27-19 42-29 5-3 8-8 8-15 0-34 0-68 0-101 0-9-3-12-11-12-15-1-30-1-45 0-8 0-11 4-11 12 0 23 0 46 0 69 0 4-1 6-4 8-6 4-11 7-17 11-1 1-2 2-4 1-2 0-1-2-1-4 0-14 0-27 0-40 0-11-3-14-13-14-41 0-81 0-121 0-10 0-14 4-14 14 0 14 0 28 0 43 0 9 3 13 13 13 19 0 38 0 58 0 8 0 8 0 8 8 0 20-1 40-1 60 0 2 0 3-3 3-3 0-7 0-10 0-8 1-12 4-12 12 0 3 0 5 0 8 0 30 0 60 0 90 0 12 3 15 15 15 37 0 74 0 111 0 5 0 9-1 13-4 16-11 32-23 48-34 6-3 8-7 8-14 0-9 0-19 0-29 0-4 1-6 6-6 15 1 29 0 44 0 11 0 14-3 14-14 0-13 0-26 0-39 0-9-4-12-13-12-32 0-65 0-97 0-7 0-9 2-12 10z m-115-105c17 0 33 0 49 0 5 0 6 2 6 6 0 17 0 34 0 51 0 4 1 8 5 10 4 2 8 1 12-1 13-9 26-19 40-27 5-3 7-8 7-14 0-20 0-41 0-62 0-5 2-6 6-6 6 0 11 0 17 0 3 0 5 1 5 5 0 27 0 55-1 83 0 4-1 7-5 9-16 11-31 22-47 32-8 6-8 10-3 18 8 12 17 24 26 36 3 4 6 6 12 5 5-2 6-6 6-11 0-5 0-10 0-15 0-4 2-5 5-5 25 0 50 0 75 0 3 0 4 1 4 5 0 5 0 10 0 16 1 4-1 6-5 6-15-1-30 0-45 0-10 0-14 3-14 13 0 11 0 23 0 34 0 4-1 6-4 8-8 6-17 11-24 18-13 11-27 15-44 14-26-1-52 0-77 0-5 0-7-2-7-7 1-5 0-11 0-16 0-20 0-39 0-59 0-2 0-4 3-5 10-4 24 6 25 17 0 11 0 22 0 34 0 9 3 13 12 13 10 0 19 0 28 0 5 0 9-1 11-5 3-5 1-9-2-13-16-23-32-45-48-68-3-3-3-7-3-12 0-21 0-43 0-65 0-9-3-12-12-12-2 0-3 0-4 0-19 0-38 0-56 0-5 0-7-1-7-7 0-6 0-12 0-18 0-4 1-6 6-6 16 2 32 1 48 1z m236 273c0-31-25-56-56-56-31 0-56 25-56 56 0 31 25 57 56 57 31 0 56-26 56-57z m-19 0c0 21-16 37-37 37-21 0-37-16-37-37 0-20 17-37 37-37 20 0 37 17 37 37z"/>
<glyph glyph-name="rem-voan" unicode="&#117;" d="M1 451l16 0 0-16-16 0z m493 0l16 0 0-16-16 0z m-413 0l95 0 0-16-95 0z m382 39l-160 0 0-39-95 0 0 39-160 0 0-39-15 0 0-16 15 0 0-409 14 13c0 0 15 15 35 14 11 0 17-6 25-13 8-8 19-18 39-19 0 0 0 0 1 0 25 0 43 18 44 18l2 3 0 393 95 0 0-393 2-3c1 0 19-18 44-18 0 0 1 0 1 0 9 0 17 3 24 7 6 3 10 8 15 12 7 7 13 13 25 13 20 1 35-14 35-14l14-13 0 409 16 0 0 16-16 0z m-271-441c-5-4-17-12-31-12-4 0-6 1-9 2l0 117-16 0 0-108c-1 1-2 2-4 3-8 8-17 18-35 18-1 0-1 0-2 0-13 0-24-4-31-8l0 414 128 0z m221 20c-17-1-27-10-35-18-1 0-2-2-3-2l0 107-16 0 0-117c-3-1-6-2-10-2-14 0-26 8-31 12l0 426 128 0 0-414c-7 4-19 8-33 8z m-79 382l96 0 0-16-96 0z m57-64l16 0 0-111-16 0z m-294 0l16 0 0-111-16 0z"/>
<glyph glyph-name="tiep-khach" unicode="&#119;" d="M0 322c14 20 27 40 41 59 8 13 17 25 25 38 3 3 4 3 7 1 14-12 29-24 43-35 4-3 4-5 2-8-21-28-41-56-61-84-4-6-4-6-10-2-13 9-27 17-40 26-2 1-5 2-7 4 0 0 0 0 0 1z m182 41c-5-2-11-5-16-7-10-6-16-15-16-26 1-12 7-21 18-25 7-4 15-3 23 0 22 11 44 21 65 31 6 3 9 3 14-1 21-18 44-35 65-54 23-19 42-41 55-68 4-9 9-18 14-26 5-10 3-20-5-25-9-6-20-4-26 5-4 7-7 14-11 21-5 10-10 20-16 30-1 2-2 5-5 3-4-2-4-4-3-7 10-18 20-36 29-54 7-12 1-25-12-28-8-2-15 2-19 9-6 11-12 22-17 32-4 7-8 14-11 21-2 3-3 4-6 2-3-2-3-3-2-6 8-15 16-30 24-45 5-9 5-17-2-24-9-8-23-5-30 6-8 14-15 28-23 42-3 6-8 10-15 11-3 0-3 1-2 4 10 14 4 37-15 42-3 1-3 2-2 5 9 21-9 41-28 39-4-1-4 2-4 4-2 12-8 20-19 24-9 3-19 2-27-5-15-13-29-25-44-38-2-1-3-3-4-5-3-4-5-4-8 0-11 10-21 19-32 29-2 2-3 4-1 7 19 25 37 50 56 75 1 2 2 4 5 4 17 0 34 0 52 0 0-1 1-1 1-2z m104 27c19 0 37-4 56-8 17-3 34-8 51-12 3-1 5-2 6-5 14-24 28-48 42-72 3-4 2-6-2-8-5-3-11-7-16-11-5-2-9-6-11-10-5-8-9-16-16-23-3-2-4-3-7 1-31 38-69 69-109 99-10 9-18 10-30 3-20-11-42-20-63-30-8-3-14-2-20 3-6 5-8 13-5 20 2 4 5 8 9 10 26 13 53 25 79 37 11 5 24 6 36 6z m226-74c0-2-2-2-2-3-15-8-30-17-45-25-3-2-4-1-6 2-18 30-35 60-53 90-2 4-1 5 2 7 14 9 28 17 41 25 4 2 5 2 7-1 18-31 37-61 55-92 0-1 1-2 1-3z m-373-119c0 6 2 11 7 15 17 15 35 30 52 45 8 7 19 5 26-2 6-7 6-18-2-25-14-14-29-26-44-39-3-3-7-6-11-9-6-4-12-5-19-1-6 2-9 8-9 16z m-25 37c0 6 2 11 6 15 15 12 29 25 43 37 8 7 19 6 26-2 7-7 7-18-1-25-15-13-30-26-44-39-6-5-13-6-20-3-6 4-10 10-10 17z m59-67c0 4 1 9 5 12 13 12 27 24 41 35 7 7 18 5 25-2 6-8 6-18-1-25-13-12-27-24-41-35-5-5-12-5-19-2-7 4-10 9-10 17z m29-35c0 6 2 11 6 14 8 7 16 14 23 21 13 10 29 4 31-11 1-6 0-11-4-15-9-8-18-16-28-23-5-5-12-5-19-2-6 4-9 9-9 16z m86-16c0-10-6-17-13-19-7-2-16 1-21 7-8 12-8 13 3 23 5 5 12 10 14 18 1 2 2 2 3 1 5-11 12-20 14-30z"/>
<glyph glyph-name="trinh-chieu" unicode="&#120;" d="M503 452l-494 0c-5 0-9-4-9-9l0-366c0-5 4-9 9-9l494 0c5 0 9 4 9 9l0 366c0 5-4 9-9 9z m-485-82l83 0 0-165-83 0z m476-165l-28 0 0 165 28 0z m0 183l-37 0c-5 0-9-4-9-9l0-183c0-5 4-9 9-9l37 0 0-101-476 0 0 101 92 0c5 0 9 4 9 9l0 183c0 5-4 9-9 9l-92 0 0 46 476 0z m-210-256c0-10-9-18-19-18-10 0-18 8-18 18 0 11 8 19 18 19 10 0 19-8 19-19z m-129 55l256 0c6 0 10 4 10 9l0 183c0 5-4 9-10 9l-256 0c-5 0-9-4-9-9l0-183c0-5 4-9 9-9z m10 183l237 0 0-165-237 0z m-10-229l28 0 0-18-28 0z m46 0l27 0 0-18-27 0z m101 0l27 0 0-18-27 0z m45 0l28 0 0-18-28 0z"/>
<glyph glyph-name="tuoi-cay" unicode="&#121;" d="M482 175c-13 0-23-32-23-45 0-12 10-23 23-23 13 0 23 10 23 23 0 13-10 45-23 45z m-40-107c-13 0-23-33-23-46 0-12 10-22 23-22 13 0 23 10 23 22 0 13-11 46-23 46z m-32 173c11-21 33-36 57-38 4 0 8 1 10 4 3 3 5 7 4 11l-16 110c0 4-3 7-6 9-4 2-8 3-12 1-22-9-38-29-43-52l-125-19 62 78c8 12 7 28-4 38l-104 95c-10 10-27 10-37-1l-3-2c-2 3-5 7-8 9-20 18-45 28-72 28-30 0-58-13-78-35-39-42-37-109 4-148-4-6-7-12-7-20 0-7 3-14 9-20l126-115c6-5 14-8 21-7 8 0 15 4 19 10l31 39z m-351 213c14 15 34 24 54 24 18 0 36-7 49-19 3-2 5-4 7-7l-106-101c-28 28-30 74-4 103z"/>
<glyph glyph-name="vao-phong" unicode="&#122;" d="M33 245l304 0-78-80c-6-6-6-17 0-22 3-3 7-5 11-5 4 0 7 1 10 4l98 98c3 3 4 7 4 11 0 4-1 8-4 11l-5 4c-1 2-2 3-4 4l-89 89c-6 6-16 6-22 0-6-6-6-14 0-20l65-64-290 0c-8 0-15-7-15-15 0-8 7-15 15-15z m461-185l0 379c0 36-30 72-67 72l-197 0c-37 0-71-35-71-72l0-90c0-9 7-16 16-16 8 0 15 7 15 16l0 90c0 20 21 42 40 42l198 0c20 0 36-23 36-42l0-379c0-20-17-28-36-28l-198 0c-19 0-41 7-41 28l0 90c0 9-6 16-15 16-8 0-15-7-15-16l0-90c0-36 32-59 70-59l198 0c40 0 67 24 67 59z"/>
<glyph glyph-name="dieu-hoa" unicode="&#67;" d="M0 391c7 9 11 20 22 26 8 4 14 4 14-8 0-1 0-1 0-2-7-60 32-77 83-76 96 2 192 1 289 1 34 0 54 13 63 38 4 11 3 22 4 34 0 5-3 13 5 15 6 2 11-3 16-7 10-10 15-22 15-36 0-29 1-59 0-89-1-24-15-43-36-47-16-3-31-4-36 19-4 20-22 24-39 24-30 1-61 0-90 0-60 0-120 0-180 0-26 0-52-2-60-36-1-8-9-8-16-9-26-2-42 12-54 34 0 39 0 79 0 119z m255-41c-52 0-104 0-155 0-36 0-51 17-49 53 1 15 6 22 22 21 31 0 62 0 93 0 86 0 171 0 257 0 16 0 35 6 36-21 0-30-11-49-35-52-7 0-14 0-20 0-50-1-99-1-149-1z m-180 54c0 0 0-2 0-2 118 0 235 0 352 0 0 0 0 2 0 2-117 0-235 0-352 0z m0-31c0-1 0-2 0-3 118 0 236 0 353 0 0 1 0 2 0 3-118 0-235 0-353 0z m181-134c-50 0-100 0-151 0-7 0-18-3-20 7-2 11 5 18 14 22 13 5 27 8 41 8 78 0 156 0 234 0 15 0 30-2 43-10 7-4 12-11 10-20-2-10-11-8-18-8-51 0-102 1-153 1z m-129-103c1 11-5 19-10 28-8 15-7 30 4 44 4 5 10 8 16 3 5-3 5-9 2-14-9-12-4-22 3-33 14-24 7-46-7-67-4-6-10-12-18-7-7 5-4 12 0 18 5 9 10 18 10 28z m78-47c-9 2-12 8-6 15 15 22 13 43 0 65-9 14-4 28 7 40 4 4 9 6 15 2 4-3 6-8 3-12-11-14-3-26 3-39 11-21 6-50-10-66-4-3-6-5-12-5z m89 48c1 11-6 19-10 28-8 16-7 31 5 44 4 4 9 6 14 3 6-3 7-9 3-14-9-13-3-23 3-35 14-24 7-45-8-66-4-6-9-11-17-6-7 4-4 11-1 17 6 9 12 18 11 29z m82-48c-11 1-16 7-10 15 17 23 12 45-1 68-7 13-2 26 8 37 4 4 9 6 14 3 6-3 7-9 3-13-10-14-2-25 4-37 11-22 7-49-10-67-2-3-6-5-8-6z"/>
<glyph glyph-name="diu-nhe" unicode="&#68;" d="M256 0l-13 0c0 27 7 41 13 54 6 12 12 24 12 48 0 24-5 36-12 48-6 13-13 27-13 54 0 28 7 41 13 54 6 13 12 24 12 49 0 24-5 35-12 48-6 13-13 27-13 54 0 27 7 41 13 54 6 12 12 24 12 48l14 0c0-27-7-41-14-54-6-12-12-24-12-48 0-24 6-36 12-48 7-14 14-27 14-54 0-28-7-41-14-55-6-12-12-24-12-48 0-24 6-35 12-48 7-13 14-27 14-54 0-27-7-41-14-54-6-12-12-24-12-48z m-6 421c-36 0-65 28-65 64 36 0 65-29 65-64z m0-195c-36 0-65 28-65 64 36 0 65-29 65-64z m22-160c-36 0-65 29-65 65 36 0 65-29 65-65z m-11 299c36 0 64 29 64 64-35 0-64-29-64-64z m0-195c36 0 64 29 64 64-35 0-64-29-64-64z m-168-170l-13 0c0 27 7 41 13 54 7 12 13 24 13 48 0 24-6 36-13 48-6 13-13 27-13 54 0 28 7 41 13 54 7 13 13 24 13 49 0 24-6 35-13 48-6 13-13 27-13 54l13 0c0-24 6-36 13-48 6-14 13-27 13-54 0-28-7-41-13-55-6-12-13-24-13-48 0-24 6-35 13-48 6-13 13-27 13-54 0-27-7-41-13-54-6-12-13-24-13-48z m-6 226c-36 0-65 28-65 64 36 0 65-29 65-64z m23-156c-36 0-65 29-65 64 36 0 65-28 65-64z m-12 295c36 0 65 29 65 64-36 0-65-29-65-64z m0-195c36 0 65 29 65 64-36 0-65-29-65-64z m319-170l-14 0c0 27 7 41 14 54 6 12 12 24 12 48 0 24-6 36-12 48-7 13-14 27-14 54 0 28 7 41 14 54 6 13 12 24 12 49l13 0c0-28-7-41-13-55-6-12-12-24-12-48 0-24 5-35 12-48 6-13 13-27 13-54 0-27-7-41-13-54-6-12-12-24-12-48z m-7 226c-36 0-65 28-65 64 36 0 65-29 65-64z m16-162c-36 0-64 29-64 65 35 0 64-29 64-65z m-1 86c35 0 64 29 64 64-36 1-64-29-64-64z"/>
<glyph glyph-name="rem-vai" unicode="&#116;" d="M84 154c-1 0-1 0-2 0-24 0-57 7-81 19l0-154 121 0c0 72-21 114-38 135z m3 61c0 0 0 0 1 0 52 53 77 122 91 178-22 4-43 10-63 18-42 16-77 40-102 69l-12 13-1 0 0-246c0 0 46-23 86-32z m423-42c-12-6-25-10-35-13-16-3-33-6-47-6-1 0-1 0-1 0-18-21-39-63-39-135l121 0 0 154z m-178 220c13-56 39-125 91-178 0 0 0 0 0 0 39 9 87 31 87 31l0 247-2 0-11-13c-25-28-60-52-102-69-20-8-41-14-63-18z m-150 19c23-5 48-7 73-7 25 0 50 2 73 7 65 13 120 42 155 81l-455 0c34-39 89-68 154-81z m-100-238c7 0 5 21 1 23-4 0-8 1-12 2-34 9-63 20-70 25l0-29c15-10 40-17 62-20 7-1 13-1 19-1z m357 25c-4 0-8-2-12-2-4-2-6-23 1-23 6 0 13 0 20 1 21 3 46 9 62 19 0 0 0 1 0 1l0 29c0 0 0-1 0-1-9-5-38-16-71-24z"/>
<glyph glyph-name="den-hat-khe" unicode="&#103;" d="M419 522c-21-5-12-33-8-47 8-23 37-40 27-69-3-12-15-31-25-29-19 13-15 33-17 44l-2 97c-13 6-32 7-44 0l-4-73c0-14-10-28-10-28-36-35-52-46-78-72-19-16-42-12-73-11-21 0-49 5-53-20-3-27 13-32 44-58 11-10 22-20 19-35 3-45 47-82 92-77 23-19 40-48 67-62 21-7 31 10 30 36-3 50-4 52 1 79 25 30 58 53 80 85 14 27-7 55-29 71-4 8 16 16 19 27 20 32 9 73-17 97-12 13 4 43-19 45z m-73-196c-1-28 42-36 51-10 4 12 1 26 2 39 13-19 43-30 46-55-2-12-26-31-49-55-18-20-32-22-52-1l-75 75c27 23 49 53 77 74z m-101-20l112-112 2-85-199 199z m-188-75c-12-2-13-25 5-26l75 0c12 0 15 25-3 26-26 0-77 0-77 0z m199-56c-13 6-25 17-31 31z m-92-38l-53-53c-15-14 3-29 14-18 0 0 36 37 58 57 12 12-6 29-19 14z m84-45l-2-72c0-18 26-17 26-1l1 75c2 21-26 23-25-2z"/>
<glyph glyph-name="power" unicode="&#118;" d="M479 246c0-31-5-59-17-87-12-28-27-52-48-72-19-20-44-35-71-48-28-12-57-17-87-17-31 0-59 5-87 17-28 13-52 28-71 48-21 20-36 44-48 72-13 28-18 56-18 87 0 35 7 68 24 100 15 31 36 57 65 78 8 7 18 10 29 8 10-1 18-7 23-15 7-8 9-17 7-27-1-10-6-19-14-25-18-14-34-31-44-53-10-20-15-43-15-66 0-21 4-40 11-58 8-19 18-34 33-47 13-15 28-25 47-33 18-7 37-11 58-11 20 0 40 4 58 11 18 8 34 18 47 33 14 13 25 28 33 47 7 18 11 37 11 58 0 23-5 46-15 66-11 22-26 39-44 53-8 6-14 15-15 25-2 10 0 19 8 27 5 8 13 14 24 15 10 2 19-1 28-8 28-21 50-47 65-78 16-32 23-65 23-100z m-185 223l0-185c0-11-4-20-12-27-8-7-16-11-26-11-10 0-19 4-27 11-7 7-11 16-11 27l0 185c0 11 4 20 11 27 8 7 17 11 27 11 10 0 18-4 26-11 8-7 12-16 12-27z"/>
<glyph glyph-name="settings" unicode="&#70;" d="M486 310l-37 6c-3 12-8 23-14 35l21 29c9 13 8 30-3 41l-32 32c-6 6-14 9-23 9-6 0-12-2-18-6l-30-21c-11 6-23 11-36 15l-5 36c-3 15-16 26-32 26l-45 0c-15 0-28-11-31-26l-6-37c-12-4-24-9-35-15l-29 21c-5 4-12 6-19 6-8 0-16-3-22-9l-32-31c-11-11-13-29-4-41l21-31c-6-11-10-22-14-34l-35-6c-15-3-26-16-26-32l0-45c0-15 11-28 26-31l37-6c3-12 8-24 14-35l-20-29c-9-13-8-30 3-41l32-32c6-6 14-9 22-9 7 0 13 2 19 6l30 21c11-5 22-10 34-14l6-36c2-15 15-26 31-26l44 0c16 0 29 11 32 26l6 36c12 4 23 9 35 15l29-22c6-4 12-6 19-6 8 0 16 4 22 10l32 31c11 11 12 28 4 41l-22 30c6 11 11 23 15 35l36 6c15 2 26 15 26 31l0 45c0 16-11 29-26 32z m-3-76c0-2-1-3-2-3l-45-8c-6-1-10-5-12-10-4-16-10-31-18-45-3-5-3-11 0-16l27-37c1-1 1-3 0-4l-32-32c-1 0-2 0-2 0-1 0-1 0-2 0l-37 27c-4 3-11 3-15 0-14-8-29-14-45-18-6-1-10-6-11-12l-7-45c-1-1-2-2-3-2l-45 0c-1 0-2 1-3 2l-7 45c-1 6-6 10-11 12-15 4-30 10-44 18-2 1-4 2-7 2-3 0-6-1-8-3l-38-26c0-1-1-1-1-1-1 0-1 0-2 1l-32 32c-1 1-1 2 0 3l26 37c3 5 4 11 1 16-8 14-15 29-19 44-2 6-6 10-12 11l-45 8c-1 0-2 1-2 2l0 45c0 1 0 3 2 3l45 8c5 0 10 5 11 11 4 15 10 30 19 44 3 5 2 11-1 16l-27 37c0 2 0 3 1 4l32 32c0 1 1 1 2 1 0 0 1-1 1-1l37-26c5-4 11-4 16-1 14 8 29 15 44 19 6 1 10 6 11 11l7 46c1 1 2 2 3 2l45 0c1 0 2-1 3-2l8-45c0-5 5-10 10-11 16-4 32-11 46-19 5-3 11-3 16 0l37 27c0 0 1 0 1 0 1 0 1 0 2 0l32-32c1-1 1-3 0-4l-26-37c-3-4-4-11-1-15 8-14 15-29 19-45 1-6 6-10 11-11l45-7c1-1 3-2 3-3z m-227 132c-61 0-110-49-110-110 0-61 49-110 110-110 61 0 110 49 110 110 0 61-49 110-110 110z m0-191c-45 0-81 36-81 81 0 45 36 81 81 81 45 0 81-36 81-81 0-45-36-81-81-81z"/>
<glyph glyph-name="more" unicode="&#71;" d="M191 251c0 35 26 62 61 62 37 1 65-27 64-64-1-34-29-61-64-60-34 0-61 28-61 62z m-67 1c1-33-28-63-62-63-35 0-62 25-62 61 0 36 25 63 60 64 34 0 64-28 64-62z m326 62c36 0 62-26 62-62 0-36-26-63-61-63-33 0-63 29-63 62-1 33 29 62 62 63z"/>
<glyph glyph-name="notifications" unicode="&#72;" d="M274 512c-3-39 10-66 50-82 38-16 56-52 62-93 4-33 8-66 8-99 0-37 8-70 29-101 20-29 14-41-21-42-96 0-192 0-287 0-20 0-46 7-28 31 45 56 34 122 40 183 6 63 29 111 89 134 36 15 19 46 26 69 11 0 21 0 32 0z m25-473c-3-25-17-39-42-39-27 1-41 18-40 45 2 25 17 40 42 39 27-1 40-19 40-45z"/>
<glyph glyph-name="favourite" unicode="&#74;" d="M0 288c0 10 0 21 0 31 26 32 63 30 98 34 44 4 76 19 90 63 5 16 13 29 21 43 10 19 19 40 45 41 25 0 36-20 45-39 11-20 22-39 30-60 11-28 31-41 60-44 26-2 53-6 78-12 45-11 54-42 24-76-14-16-30-31-46-44-30-24-43-51-31-90 7-24 10-50 12-74 3-39-27-64-58-43-77 53-149 56-227 0-31-22-62 4-58 45 2 28 7 57 14 86 6 26-2 46-21 64-26 24-51 49-76 75z"/>
<glyph glyph-name="trash-o" unicode="&#76;" d="M201 302l0-165c0-3-1-5-2-6-2-2-4-3-7-3l-18 0c-3 0-5 1-7 3-2 1-2 3-2 6l0 165c0 2 0 5 2 6 2 2 4 3 7 3l18 0c3 0 5-1 7-3 1-1 2-4 2-6z m73 0l0-165c0-3-1-5-2-6-2-2-4-3-7-3l-18 0c-3 0-5 1-7 3-1 1-2 3-2 6l0 165c0 2 1 5 2 6 2 2 4 3 7 3l18 0c3 0 5-1 7-3 1-1 2-4 2-6z m73 0l0-165c0-3 0-5-2-6-2-2-4-3-7-3l-18 0c-3 0-5 1-7 3-1 1-2 3-2 6l0 165c0 2 1 5 2 6 2 2 4 3 7 3l18 0c3 0 5-1 7-3 2-1 2-4 2-6z m37-207l0 271-256 0 0-271c0-4 1-8 2-12 1-3 3-6 4-7 2-2 3-3 3-3l238 0c0 0 1 1 3 3 1 1 3 4 4 7 1 4 2 8 2 12z m-192 307l128 0-14 34c-1 1-3 2-5 3l-90 0c-2-1-4-2-5-3z m265-9l0-18c0-3-1-5-2-7-2-1-4-2-7-2l-27 0 0-271c0-16-5-30-14-41-9-12-20-17-32-17l-238 0c-12 0-23 5-32 16-9 11-14 25-14 41l0 272-27 0c-3 0-5 1-7 2-1 2-2 4-2 7l0 18c0 3 1 5 2 7 2 1 4 2 7 2l88 0 20 48c3 7 8 13 16 18 7 5 15 7 22 7l92 0c7 0 15-2 22-7 8-5 13-11 16-18l20-48 88 0c3 0 5-1 7-2 1-2 2-4 2-7z"/>
<glyph glyph-name="exclamation-circle" unicode="&#77;" d="M256 475c40 0 77-9 110-29 34-20 60-46 80-80 20-33 29-70 29-110 0-40-9-77-29-110-20-34-46-60-80-80-33-20-70-29-110-29-40 0-77 9-110 29-34 20-60 46-80 80-20 33-29 70-29 110 0 40 9 77 29 110 20 34 46 60 80 80 33 20 70 29 110 29z m37-356l0 54c0 3-1 5-3 7-2 2-4 3-6 3l-55 0c-3 0-5-1-7-3-2-2-3-4-3-7l0-54c0-2 1-5 3-6 2-2 4-3 7-3l55 0c2 0 4 1 6 2 2 2 3 4 3 7z m-1 98l5 178c0 2-1 4-3 5-2 2-4 2-7 2l-62 0c-3 0-5 0-7-2-2-1-3-3-3-5l5-178c0-1 1-3 3-5 1-1 4-2 6-2l53 0c3 0 5 1 7 2 2 2 3 4 3 5z"/>
<glyph glyph-name="check-circle" unicode="&#78;" d="M403 302c0 6-1 10-5 13l-26 26c-3 4-8 6-13 6-5 0-9-2-12-6l-117-116-65 64c-3 4-7 6-12 6-5 0-10-2-13-6l-26-25c-4-4-5-8-5-13 0-6 1-10 5-13l103-104c4-3 8-5 13-5 5 0 10 2 13 5l155 155c4 4 5 8 5 13z m72-46c0-40-9-77-29-110-20-34-46-60-80-80-33-20-70-29-110-29-40 0-77 9-110 29-34 20-60 46-80 80-20 33-29 70-29 110 0 40 9 77 29 110 20 34 46 60 80 80 33 20 70 29 110 29 40 0 77-9 110-29 34-20 60-46 80-80 20-33 29-70 29-110z"/>
<glyph glyph-name="signal" unicode="&#79;" d="M256 154c14 0 26-6 36-16 10-10 15-22 15-36 0-14-5-26-15-36-10-10-22-15-36-15-14 0-25 5-35 15-10 10-15 22-15 36 0 14 5 26 15 36 10 10 21 16 35 16m-108 57c31 30 66 45 108 45 42 0 77-15 108-45 0 0-36-37-36-37-20 20-44 30-72 30-28 0-52-10-72-30 0 0-36 37-36 37m-71 72c50 50 110 75 180 75 69 0 129-25 178-75 0 0-36-36-36-36-39 40-87 60-142 60-56 0-104-20-144-60 0 0-36 36-36 36m-72 72c70 71 154 106 252 106 97 0 181-35 250-106 0 0-36-36-36-36-59 61-131 91-215 91-84 0-156-30-215-91 0 0-36 36-36 36"/>
<glyph glyph-name="right-open" unicode="&#80;" d="M219 397c0 0 116-121 116-121 5-5 8-12 8-20 0-8-3-14-8-19 0 0-116-121-116-121-5-6-12-8-20-8-9 0-15 2-21 8-12 12-12 26 0 41 0 0 95 99 95 99 0 0-95 100-95 100-12 15-12 29 0 41 6 6 13 9 21 9 9 0 15-3 20-9"/>
<glyph glyph-name="sound" unicode="&#81;" d="M28 246c15-63 46-107 77-145 32-31 73-59 147-80-66-19-136-34-200 23-54 59-44 126-24 202z m332-3l0-34c40-54 44-92 27-110-23-27-106 14-183 90-78 76-121 160-98 187 24 27 109-17 186-94l15 0 0 21c-47 47-194 173-247 107-37-67-14-213 59-288 84-83 235-100 305-66 53 53-12 125-64 187z m-111-68c-9 10-14 23-14 38 0 20 11 38 27 48-27 24-67 32-92-1 22-32 50-61 79-85z m72 288l182 40 0-240c0-9-3-19-10-27-8-9-18-16-30-20-14-6-27-7-38-3-10 3-17 11-20 21-4 12-4 22 2 34 6 11 15 19 29 24 12 5 29 5 41 3l-1 134-128-30-2-174c0 0 1-15-6-23-7-10-17-16-29-21-14-5-27-5-37-2-10 3-17 11-21 21-4 11-3 22 2 34 6 10 15 19 28 24 13 5 25 6 38 4l0 201"/>
<glyph glyph-name="settings-1" unicode="&#82;" d="M160 297c8-7 35-36 35-36l16 15-24 26 46 50c0 0-20 20-12 12 10 33 1 70-24 95-24 26-60 34-91 26l54-56-15-54-52-15-53 56c-9-33-1-69 24-95 26-26 63-34 96-24z m178-53l-64-64 106-110c9-9 20-13 31-13 12 0 24 4 32 13 18 18 18 47 0 66z m141 185l-68 70-199-207 24-25-119-124-28-14-38-63 9-10 61 40 15 28 119 124 24-26z"/>
<glyph glyph-name="clk-syn" unicode="&#83;" d="M321 351l-72-67c-36-10-45-51 0-67l50-41c40-11 36-10 21 26l-38 42c1 7 1 9-2 18l62 70c25 44 25 42-21 19z m101 88c-52 47-112 68-179 65-69-3-126-29-172-79 0 0-57 50-57 50 0 0 2-170 2-170 0 0 168 19 168 19 0 0-67 59-67 59 35 37 78 56 130 58 50 2 95-14 133-48 39-34 59-78 62-129 3-53-13-98-48-137-35-39-78-60-130-63-51-3-97 13-136 47-32 29-51 63-58 102 0 0-63-6-63-6 9-57 35-104 79-143 51-46 112-66 181-62 69 3 128 31 174 83 46 51 67 113 63 181-4 70-31 128-82 173"/>
<glyph glyph-name="reload" unicode="&#90;" d="M181 271l-181 0 0 181 30 0 0-124c31 96 122 165 226 165 106 0 199-71 228-173l-29-8c-25 89-107 151-199 151-97 0-181-68-202-162l127 0z m150-30l0-30 127 0c-21-94-105-162-202-162-92 0-174 62-199 151l-29-8c29-102 122-173 228-173 104 0 195 69 226 165l0-124 30 0 0 181z"/>
<glyph glyph-name="cw" unicode="&#48;" d="M224 466c58 0 107-20 147-59 41-40 62-88 63-145 0 0 63 0 63 0 0 0-95-105-95-105 0 0-94 105-94 105 0 0 74 0 74 0-1 42-17 78-48 108-31 29-67 44-110 44-43 0-80-16-110-46-31-31-46-68-46-112 0-43 15-80 46-111 30-30 67-46 110-46 36 0 67 11 93 31 0 0 36-39 36-39-37-30-80-45-129-45-57 0-106 21-147 62-41 40-62 90-62 148 0 58 21 108 62 148 41 41 90 62 147 62"/>
<glyph glyph-name="remote-control-streamline" unicode="&#52;" d="M461 17l-55 72 0 94c0 36-21 52-52 78-4 3-8 7-12 11l0 48c0 24-20 43-43 43l-149 0c-24 0-43-19-43-43l0-235c0-23 19-42 43-42l152 0c2-8 6-16 11-23l11-16c2-2 5-4 8-4 3 0 5 1 7 2 4 3 6 10 2 15l-11 15c-6 9-10 20-10 31l0 33-2 6-48 69-1 2c-5 5-5 12 0 17 5 4 12 4 17 0l59-59c4-4 11-4 15 0 4 4 4 11 0 15l-18 18 0 80c29-24 42-36 42-61l0-98 2-6 59-75c2-3 5-4 8-4 2 0 5 1 7 2 4 4 5 11 1 15z m-160 188c-13 13-34 13-47 0-13-13-13-33-1-46l46-66 0-29-149 0c-12 0-22 10-22 21l0 235c0 12 10 21 22 21l149 0c12 0 21-9 21-21l0-134z m-137 175c16 16 37 25 60 25 23 0 44-9 61-25l15 15c-20 21-47 32-76 32-28 0-55-11-75-32z m166 46c-58 58-153 58-211 0l15-15c50 49 131 49 181 0z m15 15l15 15c-75 75-197 75-272 0l16-15c66 66 174 66 241 0z m-153-153c0-6-5-11-10-11-6 0-11 5-11 11 0 6 5 11 11 11 5 0 10-5 10-11z m43 0c0-6-5-11-11-11-6 0-10 5-10 11 0 6 4 11 10 11 6 0 11-5 11-11z m43 0c0-6-5-11-11-11-6 0-11 5-11 11 0 6 5 11 11 11 6 0 11-5 11-11z m-86-43c0-6-5-10-10-10-6 0-11 4-11 10 0 6 5 11 11 11 5 0 10-5 10-11z m43 0c0-6-5-10-11-10-6 0-10 4-10 10 0 6 4 11 10 11 6 0 11-5 11-11z m-43-42c0-6-5-11-10-11-6 0-11 5-11 11 0 6 5 10 11 10 5 0 10-4 10-10z m43 0c0-6-5-11-11-11-6 0-10 5-10 11 0 6 4 10 10 10 6 0 11-4 11-10z m-43-43c0-6-5-11-10-11-6 0-11 5-11 11 0 6 5 11 11 11 5 0 10-5 10-11z m43 0c0-6-5-11-11-11-6 0-10 5-10 11 0 6 4 11 10 11 6 0 11-5 11-11z m-43-43c0-6-5-10-10-10-6 0-11 4-11 10 0 6 5 11 11 11 5 0 10-5 10-11z m43 0c0-6-5-10-11-10-6 0-10 4-10 10 0 6 4 11 10 11 6 0 11-5 11-11z m43 128c0-6-5-10-11-10-6 0-11 4-11 10 0 6 5 11 11 11 6 0 11-5 11-11z"/>
<glyph glyph-name="fan" unicode="&#53;" d="M133 33l265 0 0-36-265 0z m30 110c-38 28-62 65-69 113 36 38 74 46 112 19 2-12 15-32 23-38-34-14-69-27-66-94z m269 90c-15-45-41-80-84-101-48 22-68 54-54 99 10 6 25 25 27 34 25-27 49-56 111-32z m-234 212c44 18 88 20 132 0 14-51 1-87-42-105-11 4-35 4-44 0 6 36 13 73-46 105z m67-138c-13 0-24-11-24-24 0-13 11-24 24-24 13 0 24 11 24 24 0 13-11 24-24 24z m-4 190c119 0 216-96 216-216 0-119-97-216-216-216-119 0-216 97-216 216 0 120 97 216 216 216z m0 11c-125 0-227-101-227-227 0-125 102-227 227-227 125 0 227 102 227 227 0 126-102 227-227 227z"/>
<glyph glyph-name="triangle-left" unicode="&#54;" d="M160 256l192-192 0 384z"/>
<glyph glyph-name="triangle-right" unicode="&#55;" d="M160 448l192-192-192-192z"/>
<glyph glyph-name="triangle-up" unicode="&#56;" d="M256 384l-192-192 384 0z"/>
<glyph glyph-name="triangle-down" unicode="&#57;" d="M64 320l192-192 192 192z"/>
<glyph glyph-name="cool" unicode="&#40;" d="M366 311c0 5-2 9-6 13-3 3-8 5-13 5-32 0-63-5-90-14-28-9-53-22-75-38-21-16-44-37-67-63-3-4-5-8-5-13 0-5 2-9 5-13 4-3 8-5 13-5 5 0 9 2 13 5 5 5 12 12 21 21 9 9 15 15 19 18 26 24 52 41 77 51 25 10 55 15 89 15 5 0 10 1 13 5 4 4 6 8 6 13z m146 56c0-18-2-36-6-55-8-42-26-79-52-109-27-30-61-56-103-77-40-20-82-31-125-31-28 0-55 5-81 14-3 1-12 5-26 12-13 7-23 10-27 10-3 0-7-3-11-9-5-6-9-12-13-20-4-7-9-14-15-20-6-6-12-9-17-9-6 0-11 1-15 3-4 2-7 5-9 7-2 3-4 7-7 12-1 1-1 2-2 3-1 2-1 3-2 3 0 1 0 2-1 3 0 1 0 2 0 4 0 6 3 13 9 21 6 7 12 13 19 18 7 6 14 11 20 16 6 6 9 11 9 14 0 1-2 5-4 11-3 6-5 11-5 13-2 9-3 19-3 29 0 22 5 43 13 63 8 20 19 38 34 53 14 15 30 28 49 40 18 11 37 20 58 27 10 3 24 6 41 7 17 2 35 2 52 3 17 0 34 1 51 1 17 1 32 4 46 7 14 4 25 9 33 16l8 9 9 8 7 6 11 4 12 1c8 0 14-4 20-13 6-8 11-19 14-32 3-12 5-24 7-35 1-11 2-20 2-28z"/>
<glyph glyph-name="warm" unicode="&#38;" d="M421 256c0 22-5 44-13 64-9 20-21 38-36 52-14 15-32 27-52 36-20 8-42 13-64 13-22 0-44-5-64-13-20-9-38-21-52-36-15-14-27-32-36-52-8-20-13-42-13-64 0-22 5-44 13-64 9-20 21-38 36-52 14-15 32-27 52-36 20-8 42-13 64-13 22 0 44 5 64 13 20 9 38 21 52 36 15 14 27 32 36 52 8 20 13 42 13 64z m78-79c0-3-2-5-5-6l-84-27 0-88c0-3-1-5-3-7-3-2-6-2-9-1l-83 27-52-71c-1-3-4-4-7-4-3 0-6 1-7 4l-52 71-83-27c-3-1-6-1-9 1-2 2-3 4-3 7l0 88-84 27c-3 1-5 3-5 6-1 3-1 6 1 8l51 71-51 71c-2 2-2 5-1 8 0 3 2 5 5 6l84 27 0 88c0 3 1 5 3 7 3 2 6 2 9 1l83-27 52 71c1 3 4 4 7 4 3 0 6-1 7-4l52-71 83 27c3 1 6 1 9-1 2-2 3-4 3-7l0-88 84-27c3-1 5-3 5-6 1-3 1-6-1-8l-51-71 51-71c2-2 2-5 1-8z"/>
<glyph glyph-name="smartirw809ii" unicode="&#37;" d="M511 309c0 22-7 41-19 57-1 3-4 4-6 7-5 5-10 9-15 13-124 104-306 104-430 0-5-4-21-21-21-21-12-16-19-36-19-58 0-23 10-49 21-60 11-11 161-162 161-162 18-21 44-34 73-34 28 0 48 5 71 28 0 0 155 158 155 158 19 19 29 47 29 72z m-255-202c-23 0-42 19-42 42 0 23 19 42 42 42 23 0 42-19 42-42 0-23-19-42-42-42z m109 91c-8-8-19-12-30-12-11 0-21 4-30 12-27 28-71 28-98 0-17-16-43-16-59 0-17 17-17 43 0 60 59 59 157 59 217 0 16-17 16-43 0-60z m79 79c-8-8-19-12-30-12-11 0-22 4-30 12-70 71-185 71-256 0-16-16-43-16-59 0-17 17-17 43 0 60 103 103 271 103 375 0 16-17 16-43 0-60z"/>
<glyph glyph-name="ming" unicode="&#41;" d="M422 175c0 18 14 32 32 32 18 0 32-14 32-32 0-17-14-32-32-32-18 0-32 15-32 32z m32 133c18 0 32 14 32 32 0 17-14 31-32 31-18 0-32-14-32-31 0-18 14-32 32-32z m-122-7c0-18 14-32 32-32 18 0 32 14 32 32 0 18-14 32-32 32-18 0-32-14-32-32z m-160-211c-18 0-32-15-32-32 0-18 14-32 32-32 18 0 32 14 32 32 0 17-14 32-32 32z m128 243c17 0 32 14 32 32 0 17-15 32-32 32-18 0-33-15-33-32 0-18 15-32 33-32z m64-88c-18 0-32-14-32-32 0-18 14-32 32-32 18 0 32 14 32 32 0 18-14 32-32 32z m-152-64c-17 0-32-14-32-32 0-18 15-32 32-32 18 0 33 14 33 32 0 18-15 32-33 32z m128-91c-18 0-33-15-33-32 0-18 15-32 33-32 17 0 32 14 32 32 0 17-15 32-32 32z m0 332c17 0 32 15 32 32 0 18-15 32-32 32-18 0-33-14-33-32 0-17 15-32 33-32z m-192-241c18 0 32 14 32 32 0 18-14 32-32 32-18 0-32-14-32-32 0-18 14-32 32-32z m-90 127c18 0 32 14 32 32 0 17-14 31-32 31-18 0-32-14-32-31 0-18 14-32 32-32z m0-165c18 0 32 15 32 32 0 18-14 32-32 32-18 0-32-14-32-32 0-17 14-32 32-32z m90 126c18 0 32 14 32 32 0 18-14 32-32 32-18 0-32-14-32-32 0-18 14-32 32-32z m152-152c17 0 32 14 32 32 0 18-15 32-32 32-18 0-33-14-33-32 0-18 15-32 33-32z m-120 248c0-18 15-32 32-32 18 0 33 14 33 32 0 17-15 32-33 32-17 0-32-15-32-32z m-8 57c18 0 32 15 32 32 0 18-14 32-32 32-18 0-32-14-32-32 0-17 14-32 32-32z"/>
<glyph glyph-name="account" unicode="&#44;" d="M391 153c68-23 102-44 102-60 0 0 0-53 0-53 0 0-235 0-235 0 0 0-234 0-234 0 0 0 0 53 0 53 0 16 34 37 102 60 31 12 53 23 63 35 12 12 18 27 18 47 0 8-4 15-12 24-7 10-12 22-15 37-1 4-2 7-5 9-2 2-4 3-7 4-2 1-4 4-7 9-2 4-4 11-4 21 0 5 0 10 2 13 2 4 3 6 5 6 0 0 2 1 2 1-3 17-5 32-6 44-2 19 5 37 21 57 14 18 40 28 77 28 37 0 64-10 79-28 16-20 22-38 20-57 0 0-6-44-6-44 6-1 9-9 9-20 0-10-2-17-4-21-3-5-5-8-7-9-3-1-5-2-7-4-3-2-4-5-5-9-3-16-8-28-15-37-8-9-12-16-12-24 0-20 6-35 17-47 12-12 33-23 64-35"/>
<glyph glyph-name="chevron-circle-down" unicode="&#46;" d="M269 141l130 130c3 3 5 7 5 12 0 5-2 10-5 13l-30 29c-3 4-7 6-12 6-5 0-10-2-13-6l-88-87-88 87c-3 4-8 6-13 6-5 0-9-2-12-6l-30-29c-3-3-5-8-5-13 0-5 2-9 5-12l130-130c4-4 8-6 13-6 5 0 9 2 13 6z m206 115c0-40-9-77-29-110-20-34-46-60-80-80-33-20-70-29-110-29-40 0-77 9-110 29-34 20-60 46-80 80-20 33-29 70-29 110 0 40 9 77 29 110 20 34 46 60 80 80 33 20 70 29 110 29 40 0 77-9 110-29 34-20 60-46 80-80 20-33 29-70 29-110z"/>
<glyph glyph-name="chevron-circle-left" unicode="&#47;" d="M296 113l29 30c4 3 6 7 6 12 0 5-2 10-6 13l-87 88 87 88c4 3 6 8 6 13 0 5-2 9-6 12l-29 30c-3 3-8 5-13 5-5 0-9-2-12-5l-130-130c-4-4-6-8-6-13 0-5 2-9 6-13l130-130c3-3 7-5 12-5 5 0 10 2 13 5z m179 143c0-40-9-77-29-110-20-34-46-60-80-80-33-20-70-29-110-29-40 0-77 9-110 29-34 20-60 46-80 80-20 33-29 70-29 110 0 40 9 77 29 110 20 34 46 60 80 80 33 20 70 29 110 29 40 0 77-9 110-29 34-20 60-46 80-80 20-33 29-70 29-110z"/>
<glyph glyph-name="chevron-circle-right" unicode="&#58;" d="M241 113l130 130c4 4 6 8 6 13 0 5-2 9-6 13l-130 130c-3 3-7 5-12 5-5 0-10-2-13-5l-29-30c-4-3-6-7-6-12 0-5 2-10 6-13l87-88-87-88c-4-3-6-8-6-13 0-5 2-9 6-12l29-30c3-3 8-5 13-5 5 0 9 2 12 5z m234 143c0-40-9-77-29-110-20-34-46-60-80-80-33-20-70-29-110-29-40 0-77 9-110 29-34 20-60 46-80 80-20 33-29 70-29 110 0 40 9 77 29 110 20 34 46 60 80 80 33 20 70 29 110 29 40 0 77-9 110-29 34-20 60-46 80-80 20-33 29-70 29-110z"/>
<glyph glyph-name="chevron-circle-up" unicode="&#59;" d="M369 187l30 29c3 3 5 8 5 13 0 5-2 9-5 12l-130 130c-4 4-8 6-13 6-5 0-9-2-13-6l-130-130c-3-3-5-7-5-12 0-5 2-10 5-13l30-29c3-4 7-6 12-6 5 0 10 2 13 6l88 87 88-87c3-4 8-6 13-6 5 0 9 2 12 6z m106 69c0-40-9-77-29-110-20-34-46-60-80-80-33-20-70-29-110-29-40 0-77 9-110 29-34 20-60 46-80 80-20 33-29 70-29 110 0 40 9 77 29 110 20 34 46 60 80 80 33 20 70 29 110 29 40 0 77-9 110-29 34-20 60-46 80-80 20-33 29-70 29-110z"/>
<glyph glyph-name="home" unicode="&#60;" d="M440 219l0-172c0-6-2-11-7-15-3-5-9-7-14-7l-119 0 0 137-81 0 0-137-119 0c-5 0-11 2-14 7-4 4-7 9-7 15l0 172c0 1 0 1 0 1l180 169 180-169c0 0 0-1 0-1z m68 24l-18-26c-2-3-4-4-7-4l-1 0c-3 0-5 1-6 2l-216 206-217-206c-2-2-4-2-7-2-2 0-5 1-7 4l-18 26c-2 2-2 5-2 8 0 4 1 7 3 8l224 213c6 6 15 10 24 10 8 0 17-4 24-10l75-73 0 70c0 3 1 6 3 8 2 2 5 3 8 3l59 0c3 0 5-1 7-3 3-2 4-5 4-8l0-145 67-65c3-1 4-4 4-8 0-3 0-6-3-8z"/>
<glyph glyph-name="network" unicode="&#61;" d="M462 445l-412 0c-16 0-29-12-29-28l0-252c0-16 13-29 29-29l155 0 0-44-48 0c-5 0-8-4-8-8l0-9c0-5 3-8 8-8l194 0c4 0 8 3 8 8l0 9c0 4-4 8-8 8l-44 0 0 44 155 0c16 0 29 13 29 29l0 252c0 16-13 28-29 28z m-390-258l0 207 368 0 0-207z"/>
<glyph glyph-name="bullseye" unicode="&#62;" d="M329 256c0-20-7-37-21-52-15-14-32-21-52-21-20 0-37 7-52 21-14 15-21 32-21 52 0 20 7 37 21 52 15 14 32 21 52 21 20 0 37-7 52-21 14-15 21-32 21-52z m37 0c0 30-11 56-32 78-22 21-48 32-78 32-30 0-56-11-78-32-21-22-32-48-32-78 0-30 11-56 32-78 22-21 48-32 78-32 30 0 56 11 78 32 21 22 32 48 32 78z m36 0c0-40-14-75-43-103-28-29-63-43-103-43-40 0-75 14-103 43-29 28-43 63-43 103 0 40 14 75 43 103 28 29 63 43 103 43 40 0 75-14 103-43 29-28 43-63 43-103z m37 0c0 25-5 48-15 71-9 23-22 42-39 58-16 17-35 30-58 39-23 10-46 15-71 15-25 0-48-5-71-15-23-9-42-22-58-39-17-16-30-35-39-58-10-23-15-46-15-71 0-25 5-48 15-71 9-23 22-42 39-58 16-17 35-30 58-39 23-10 46-15 71-15 25 0 48 5 71 15 23 9 42 22 58 39 17 16 30 35 39 58 10 23 15 46 15 71z m36 0c0-40-9-77-29-110-20-34-46-60-80-80-33-20-70-29-110-29-40 0-77 9-110 29-34 20-60 46-80 80-20 33-29 70-29 110 0 40 9 77 29 110 20 34 46 60 80 80 33 20 70 29 110 29 40 0 77-9 110-29 34-20 60-46 80-80 20-33 29-70 29-110z"/>
<glyph glyph-name="toggle-on" unicode="&#63;" d="M-37 256c0 25 5 48 15 71 10 23 23 42 39 58 16 17 36 30 58 39 23 10 47 15 71 15l220 0c24 0 48-5 71-15 22-9 42-22 58-39 16-16 29-35 39-58 10-23 15-46 15-71 0-25-5-48-15-71-10-23-23-42-39-58-16-17-36-30-58-39-23-10-47-15-71-15l-220 0c-24 0-48 5-71 15-22 9-42 22-58 39-16 16-29 35-39 58-10 23-15 46-15 71z m403-146c20 0 38 4 56 11 18 8 34 18 47 32 13 13 24 28 31 46 8 18 12 37 12 57 0 20-4 39-12 57-7 18-18 33-31 46-13 14-29 24-47 32-18 7-36 11-56 11-20 0-39-4-57-11-18-8-34-18-47-32-13-13-23-28-31-46-8-18-12-37-12-57 0-20 4-39 12-57 8-18 18-33 31-46 13-14 29-24 47-32 18-7 37-11 57-11z"/>
<glyph glyph-name="toggle-off" unicode="&#64;" d="M293 256c0 20-4 39-12 57-8 18-18 33-31 46-13 14-29 24-47 32-18 7-37 11-57 11-20 0-38-4-56-11-18-8-34-18-47-32-13-13-24-28-31-46-8-18-12-37-12-57 0-20 4-39 12-57 7-18 18-33 31-46 13-14 29-24 47-32 18-7 36-11 56-11 20 0 39 4 57 11 18 8 34 18 47 32 13 13 23 28 31 46 8 18 12 37 12 57z m219 0c0 20-4 39-12 57-7 18-18 33-31 46-13 14-29 24-47 32-18 7-36 11-56 11l-111 0c23-17 41-38 54-64 14-25 20-53 20-82 0-29-6-57-20-82-13-26-31-47-54-64l111 0c20 0 38 4 56 11 18 8 34 18 47 32 13 13 24 28 31 46 8 18 12 37 12 57z m37 0c0-25-5-48-15-71-10-23-23-42-39-58-16-17-36-30-58-39-23-10-47-15-71-15l-220 0c-24 0-48 5-71 15-22 9-42 22-58 39-16 16-29 35-39 58-10 23-15 46-15 71 0 25 5 48 15 71 10 23 23 42 39 58 16 17 36 30 58 39 23 10 47 15 71 15l220 0c24 0 48-5 71-15 22-9 42-22 58-39 16-16 29-35 39-58 10-23 15-46 15-71z"/>
<glyph glyph-name="bell-on" unicode="&#84;" d="M261 27c0 3-2 5-5 5-11 0-21 4-29 12-8 8-12 18-12 29 0 3-2 5-5 5-3 0-4-2-4-5 0-14 5-26 14-35 10-10 22-15 36-15 3 0 5 1 5 4z m233 83c0-10-4-19-11-26-7-7-16-11-26-11l-128 0c0-20-7-37-21-52-15-14-32-21-52-21-20 0-37 7-52 21-14 15-21 32-21 52l-128 0c-10 0-19 4-26 11-7 7-11 16-11 26 10 8 18 16 26 25 8 9 16 20 25 34 8 14 15 29 21 45 6 16 10 36 14 59 4 23 6 48 6 74 0 29 11 56 33 81 22 25 52 40 88 45-2 4-2 8-2 12 0 7 2 14 8 19 5 5 11 8 19 8 8 0 14-3 19-8 6-5 8-12 8-19 0-4 0-8-2-12 36-5 66-20 88-45 22-25 33-52 33-81 0-26 2-51 6-74 4-23 8-43 14-59 6-16 13-31 21-45 9-14 17-25 25-34 8-9 16-17 26-25z"/>
<glyph glyph-name="bell-off" unicode="&#85;" d="M261 27c0 3-2 5-5 5-11 0-21 4-29 12-8 8-12 18-12 29 0 3-2 5-5 5-3 0-4-2-4-5 0-14 5-26 14-35 10-10 22-15 36-15 3 0 5 1 5 4z m-191 83l372 0c-51 57-76 136-76 237 0 10-3 20-7 30-5 11-11 21-20 30-8 9-20 17-35 23-14 6-30 9-48 9-18 0-34-3-48-9-15-6-27-14-35-23-9-9-15-19-20-30-4-10-7-20-7-30 0-101-25-180-76-237z m424 0c0-10-4-19-11-26-7-7-16-11-26-11l-128 0c0-20-7-37-21-52-15-14-32-21-52-21-20 0-37 7-52 21-14 15-21 32-21 52l-128 0c-10 0-19 4-26 11-7 7-11 16-11 26 10 8 18 16 26 25 8 9 16 20 25 34 8 14 15 29 21 45 6 16 10 36 14 59 4 23 6 48 6 74 0 29 11 56 33 81 22 25 52 40 88 45-2 4-2 8-2 12 0 7 2 14 8 19 5 5 11 8 19 8 8 0 14-3 19-8 6-5 8-12 8-19 0-4 0-8-2-12 36-5 66-20 88-45 22-25 33-52 33-81 0-26 2-51 6-74 4-23 8-43 14-59 6-16 13-31 21-45 9-14 17-25 25-34 8-9 16-17 26-25z"/>
<glyph glyph-name="script" unicode="&#69;" d="M64 368l266 0 0-27-266 0z m190-92l-190 0 0-26 162 0z m-190-117l128 0 6 26-134 0z m335 230l0 23c0 24-20 44-43 44l-313 0c-24 0-43-19-43-44l0-312c0-24 19-43 43-43l313 0c23 0 43 19 43 43l0 148 73 84-70 60z m-33-296l-333 0 0 317 333 0 0-59-116-135 69-60 47 54z m140 301l-47 41c-6 6-16 6-20 0l-29-33 70-61 29 34c5 5 3 14-3 19z m-287-276l4-4 88 32-69 61z"/>
<glyph glyph-name="rooms" unicode="&#89;" d="M192 512l0-22-88 0 0-451 32 0 0 418 56 0 0-457 216 39 0 434z m40-274c-8 0-14 8-14 18 0 9 6 17 14 17 7 0 13-8 13-17 0-10-6-18-13-18z"/>
<glyph glyph-name="den-chung" unicode="&#99;" d="M0 102c2 11 2 22 5 32 12 57 40 104 82 142 35 30 74 49 118 58 3 1 5 3 6 6 4 18 8 35 12 52 2 10 5 12 15 12 8 0 8 0 8 9 0 23 0 46 0 69 0 2 0 4 0 6 1 4 5 8 10 8 4 0 8-3 10-8 0-2 0-4 0-6 0-24 0-47 0-71 0-5 1-7 6-7 3 1 6 1 9 0 5-1 7-5 8-10 4-18 8-35 12-53 1-4 3-6 7-7 62-13 113-45 151-96 29-37 46-80 52-127 1-8 1-17 1-25 0-9-4-13-12-13-58 0-116 0-174 0-8 0-8 0-10-7-11-42-61-59-96-34-12 9-20 21-24 35-1 5-3 6-8 6-58 0-117 0-174 0-6 0-10 2-14 7 0 7 0 15 0 22z m256-9c75 0 150 0 226 0 2 0 3 0 4 0 5 0 6 2 6 6-1 7-2 13-2 19-10 59-37 107-82 145-51 43-110 61-177 55-36-4-70-16-102-36-40-25-70-60-89-103-11-25-17-51-20-77 0-8 0-9 8-9 76 0 151 0 228 0z m0-20c-12 0-24 0-36 0-4 0-5-1-4-5 5-15 22-27 39-27 17 0 34 11 40 27 2 4 1 6-4 5-11 0-23 0-35 0z m0 311c-3 0-6 0-9 0-4 1-6-1-7-4-2-12-5-24-8-37 0-3 0-5 4-4 14 1 27 1 40 0 4-1 5 0 4 4-2 9-4 19-6 28-4 13-4 13-18 13z m209-228c0-5-3-9-7-10-5-1-9 1-11 6-4 9-8 18-12 27-23 42-56 72-100 91-3 1-6 2-8 4-5 2-7 7-5 12 2 5 7 7 12 6 4-1 7-3 11-4 57-26 97-68 119-126 1-2 1-4 1-6z m-201 149c8 1 17-1 25-2 3 0 6-1 8-3 3-3 4-7 2-11-2-4-5-6-9-6-11 1-23 2-34 3-6 0-10 5-10 10 0 6 5 9 12 9 2 0 4 0 6 0z m201-198c-5 0-8 3-10 9-2 11-1 17 4 19 6 3 12 1 14-5 1-4 2-8 2-12 1-6-4-11-10-11z"/>
<glyph glyph-name="camera" unicode="&#97;" d="M509 373c-3 4-8 6-13 7l-46 1 5 17c3 8-2 17-10 20l-284 88c-9 3-17-2-20-10l-44-142c-3-9 2-18 10-21l58-18-10-30c-1-4-1-9 1-12 2-4 5-7 9-8l26-8-65-105c-9 4-19 6-30 6l-80 0c-9 0-16-7-16-16l0-120c0-9 7-16 16-16l80 0c42 0 76 34 76 76 0 20-7 37-20 51 1 0 1 1 1 1l70 113 34-11c2 0 3 0 5 0 7 0 13 4 15 11l10 30 104-32c2-1 3-1 5-1 2 0 5 1 8 2 3 2 6 5 8 9l5 17 39-25c3-2 5-3 9-3 2 0 3 1 5 1 5 2 9 6 10 11l32 102c0 5 0 10-3 15z m-477-247l21 0 0-88-21 0z m64-89l-11 0 0 89 11 0c24 0 44-20 44-45 0-24-20-44-44-44z m156 234l-61 19 4 15 61-19z m133 9l-253 79 34 112 254-79-7-22-21-67c0-1-7-23-7-23z m70 6l-29 18 14 45 34-1z m-286 108c-4 0-8-2-11-5-3-3-5-7-5-11 0-4 2-9 5-12 3-2 7-4 11-4 4 0 9 1 12 4 2 3 4 8 4 12 0 4-1 8-4 11-3 3-7 5-12 5z"/>
<glyph glyph-name="rem-chung" unicode="&#114;" d="M136 384c2 0 5 1 6 2l35 35c3 3 3 8 0 12-4 3-9 3-12 0l-35-35c-3-3-3-8 0-12 2-1 4-2 6-2z m12-11l-18-17c-3-3-3-9 0-12 2-2 4-3 6-3 2 0 5 1 6 3l18 17c3 3 3 9 0 12-4 3-9 3-12 0z m17 17c-2-2-3-4-3-6 0-2 1-4 3-6 1-2 4-2 6-2 2 0 4 0 6 2 1 2 2 4 2 6 0 2-1 4-2 6-3 3-9 3-12 0z m42 43l-25-26c-3-3-3-9 0-12 1-1 4-2 6-2 2 0 4 1 6 2l25 26c4 3 4 9 0 12-3 3-8 3-12 0z m163-179l-35-35c-3-3-3-8 0-12 2-1 4-2 6-2 2 0 5 1 6 2l35 35c3 3 3 8 0 12-4 3-9 3-12 0z m-12 11c2 0 5 1 6 2l18 17c3 4 3 9 0 13-4 3-9 3-12 0l-18-18c-3-3-3-9 0-12 2-1 4-2 6-2z m-17-17c3 0 5 0 6 2 2 2 3 4 3 6 0 2-1 4-3 6-3 3-8 3-12 0-1-2-2-4-2-6 0-2 1-4 2-6 2-2 4-2 6-2z m-11-3c-3 3-9 3-12 0l-25-26c-4-3-4-8 0-12 1-1 4-2 6-2 2 0 4 1 6 2l25 26c3 3 3 9 0 12z m165 233l8 0c5 0 9 4 9 8 0 5-4 9-8 9l-9 0 0 9c0 4-4 8-8 8-5 0-9-4-9-8l0-9-17 0 0 9c0 4-4 8-9 8-5 0-8-4-8-8l0-9-17 0 0 9c0 4-4 8-9 8-4 0-8-4-8-8l0-9-307 0 0 9c0 4-4 8-9 8-5 0-8-4-8-8l0-9-17 0 0 9c0 4-4 8-9 8-5 0-8-4-8-8l0-9-17 0 0 9c0 4-5 8-9 8-5 0-8-4-8-8l0-9-9 0c-5 0-8-4-8-8 0-5 4-9 8-9l9 0 0-8-18 0 0-469 120 0 0 119 273 0 0-120 119 0 0 469-17 0z m-85 0l0-9-146 0 0-128c-4 0-8-4-8-8 0-5 4-8 8-8l0-145 128 0 0-9-272 0 0 9 128 0 0 289-146 0 0 9z m-128-154l17 0c5 0 8 4 8 9 0 4-4 8-8 8l-17 0 0 111 110 0 0-256-110 0z m-162-127l0 255 110 0 0-256-110 0z m-86-180l-17 0 0 435 17 0z m0 452l0 9 17 0 0-9z m34-452l-17 0 0 435 18 0 0-435z m0 452l0 9 17 0 0-9z m34-452l-17 0 0 435 17 0z m18 120l0 17 272 0 0-17z m307-120l-18 0 0 435 18 0z m0 452l0 9 17 0 0-9z m34-452l-18 0 0 435 18 0z m34 0l-18 0 0 435 18 0z m-34 452l0 9 17 0 0-9z"/>
<glyph glyph-name="an-toi" unicode="&#115;" d="M2 435c0 1 1 2 2 3 6 7 16 5 18-4 1-2 1-5 1-7 0-14 0-27 0-41 0-4 1-6 5-6 5 0 5 3 5 6 0 15 0 29 0 44 0 10 9 15 17 10 4-2 5-7 5-11 0-15 0-29 0-43 0-4 1-6 5-6 4 0 5 2 5 6 0 13 0 27 0 41 0 2 0 5 0 7 2 5 7 8 12 8 5-1 10-5 10-10-1-30 2-59-2-88-3-17-8-32-21-45 0 0-1-1-2-1-7-3-7-9-7-16 0-66 0-133 0-200 0-2 0-4 0-6-1-6-6-10-11-10-6 0-10 4-11 10 0 2 0 4 0 6 0 68 0 136 0 204 0 5-2 8-6 11-9 6-15 16-19 26-3 9-5 18-6 27 0 1-1 2-1 4 1 27 1 54 1 81z m43-77c-5 0-10 0-16 0-3 0-5-1-5-4 2-13 5-25 13-35 5-8 10-7 16 0 7 11 10 23 12 36 0 3-2 3-4 3-5 0-10 0-16 0z m216 68c95 0 172-77 172-172 0-95-78-172-172-172-93 0-172 75-172 172 0 96 79 172 172 172z m0-23c-80 1-149-64-149-149 0-85 68-149 148-149 81-1 150 64 150 149 1 84-68 150-149 149z m251-149c0-58 0-116 0-174 0-2 0-5 0-7-1-5-4-9-10-9-5-1-10 3-11 8-1 2-1 5-1 8 0 50 0 99 0 149 0 5-1 8-7 9-16 3-25 12-30 28-2 8-4 17-4 26 0 21 0 42 4 63 6 31 18 58 37 83 1 1 2 2 3 3 4 4 8 4 13 3 4-2 6-5 6-10 0-2 0-3 0-5 0-59 0-117 0-175z m-22 138c-7-10-11-22-14-34-6-25-5-50-4-75 0-3 1-7 2-11 1-4 3-8 8-11 6-3 7-2 7 5 0 35 0 71 0 107 1 6 1 13 1 19z m-228-260c-65 0-123 52-122 122 0 70 57 122 121 122 66 0 122-53 122-122 0-69-56-122-121-122z m99 122c0 54-45 99-99 100-55 0-99-44-100-99-1-54 43-100 98-101 55 0 100 44 101 100z"/>
<glyph glyph-name="favourite-none" unicode="&#65;" d="M392 10c-8 0-17 2-25 7l-83 44c-14 7-42 7-56 0l-83-44c-20-11-41-8-53 6-5 6-11 19-8 39l16 92c3 16-6 41-17 53l-67 65c-14 14-20 30-15 45 5 14 19 24 38 27l93 14c16 2 37 18 45 32l41 84c9 18 23 28 38 28 15 0 29-10 38-28l41-84c8-14 29-30 45-32l93-14c19-3 33-13 38-27 5-15-1-31-15-45l-67-65c-11-12-20-37-17-53l16-92c3-20-3-33-8-39-7-8-17-13-28-13z m-136 99c18 0 35-4 48-11l82-43-16 92c-5 30 8 69 30 90l66 65-92 13c-30 5-63 29-77 56l-41 84-41-84c-14-27-47-51-77-56l-92-13 66-65c22-21 35-60 30-90l-16-92 82 43c13 7 30 11 48 11z"/>
<glyph glyph-name="plus" unicode="&#73;" d="M275 514c10-2 21-2 31-4 47-10 88-31 123-63 44-41 71-92 80-152 9-61-3-120-37-173-33-51-79-87-137-107-33-11-67-15-101-11-58 4-109 27-152 67-44 41-71 91-80 151-1 6-1 12-2 17 0 13 0 25 0 38 1 6 1 12 2 18 10 60 36 110 81 151 35 33 76 54 123 63 10 2 21 3 31 5 13 0 25 0 38 0z m217-256c0 130-106 236-236 236-130 0-236-106-236-236 0-130 106-235 235-236 131 0 236 106 237 236z m-226-71c0-18 0-36 0-55 0-4-1-8-5-10-6-4-13-1-15 6 0 2 0 4 0 6 0 36 0 71 0 107 0 6 0 6-7 6-33 0-67 0-100 0-2 0-4 0-6 0-6 1-10 5-10 10 0 6 4 10 11 10 2 0 5 0 8 0 32 0 65 0 97 0 7 0 7 0 7 7 0 32 0 65 0 97 0 9 4 14 10 14 7 0 10-5 10-14 0-33 0-65 0-98 0-5 2-6 7-6 34 0 68 0 102 0 2 0 5 0 7-1 4-2 7-5 7-10 0-4-3-7-7-9-2-1-5-1-7-1-34 0-68 0-102 0-7 0-7 0-7-6 0-17 0-35 0-53z"/>
<glyph glyph-name="switch" unicode="&#66;" d="M176 157l0 102c2 0 3 1 5 2l128-128c-3-7-5-14-5-21 0-27 21-48 48-48 27 0 48 21 48 48 0 21-13 38-32 45l0 102c19 7 32 24 32 45 0 26-21 48-48 48-27 0-48-22-48-48 0-21 13-38 32-45l0-102c-2-1-3-1-5-2l-128 128c3 7 5 14 5 21 0 27-21 48-48 48-27 0-48-21-48-48 0-21 13-38 32-45l0-102c-19-7-32-24-32-45 0-27 21-48 48-48 27 0 48 21 48 48 0 21-13 38-32 45z m336 227l-256 128-256-128 0-64 32 16 0-336 448 0 0 336 32-16z m-64-352l-384 0 0 320 192 96 192-96z"/>
<glyph glyph-name="home-1" unicode="&#75;" d="M437 224c-6 0-10-5-10-11l0-192-107 0 0 139-128 0 0-139-107 0 0 203c0 6-4 11-10 11-6 0-11-5-11-11l0-224 149 0 0 139 86 0 0-139 149 0 0 213c0 6-5 11-11 11z m72 18l-253 242-253-242c-4-4-4-10 0-15 4-4 11-4 15 0l238 228 238-228c2-2 5-3 7-3 3 0 6 1 8 3 4 5 4 11 0 15z m-168 185l64 0 0-64c0-6 5-11 11-11 6 0 11 5 11 11l0 85-86 0c-6 0-10-5-10-11 0-6 4-10 10-10z"/>
<glyph glyph-name="menu" unicode="&#86;" d="M454 409l-320 0c-9 0-17-8-17-18l0-16c0-9 8-17 17-17l320 0c10 0 18 8 18 17l0 16c0 10-8 18-18 18z m0-128l-320 0c-9 0-17-7-17-17l0-16c0-10 8-17 17-17l320 0c10 0 18 7 18 17l0 16c0 10-8 17-18 17z m0-127l-320 0c-9 0-17-8-17-17l0-16c0-10 8-18 17-18l320 0c10 0 18 8 18 18l0 16c0 9-8 17-18 17z m-363 229c0-14-11-25-25-25-14 0-26 11-26 25 0 15 12 26 26 26 14 0 25-11 25-26z m0-122c0-14-11-25-25-25-14 0-26 11-26 25 0 14 12 26 26 26 14 0 25-12 25-26z m0-132c0-15-11-26-25-26-14 0-26 11-26 26 0 14 12 25 26 25 14 0 25-11 25-25z"/>
<glyph glyph-name="minus" unicode="&#49;" d="M96 277l320 0 0-42-320 0z"/>
<glyph glyph-name="plus-1" unicode="&#50;" d="M416 235l-139 0 0-139-42 0 0 139-139 0 0 42 139 0 0 139 42 0 0-139 139 0z"/>
<glyph glyph-name="back" unicode="&#87;" d="M486 82c-29 52-64 85-106 101-42 15-98 23-169 23 0 0 0-112 0-112 0 0-185 171-185 171 0 0 185 165 185 165 0 0 0-98 0-98 31 0 59-5 86-14 27-9 49-21 67-36 18-15 35-31 49-49 15-17 27-35 36-53 8-18 16-34 22-48 6-15 10-27 12-36 0 0 3-14 3-14"/>
<glyph glyph-name="up-open-big" unicode="&#88;" d="M446 143c0 0-190 184-190 184 0 0-189-184-189-184-9-7-18-7-26 0-8 9-8 17 0 26 0 0 203 200 203 200 9 9 17 9 24 0 0 0 203-200 203-200 8-9 8-17 0-26-9-7-17-7-25 0"/>
<glyph glyph-name="down-open-big" unicode="&#51;" d="M67 369c0 0 189-183 189-183 0 0 190 183 190 183 8 9 16 9 25 0 9-8 9-16 0-25 0 0-203-201-203-201-7-7-15-7-24 0 0 0-203 201-203 201-9 9-9 17 0 25 8 8 17 8 26 0"/>
<glyph glyph-name="mute" unicode="&#33;" d="M96 320l-64 0 0-128 64 0 128-96 32 0 0 320-32 0z m368-16l-32 32-48-48-48 48-31-32 47-48-48-48 32-32 48 48 48-48 32 32-48 48z"/>
<glyph glyph-name="in" unicode="&#34;" d="M480 512l-224 0c-18 0-32-14-32-32 0-18 14-32 32-32l192 0 0-384-192 0c-18 0-32-14-32-32 0-18 14-32 32-32l224 0c18 0 32 14 32 32l0 448c0 18-14 32-32 32z m-256-384l128 128-128 128 0-96-195 0c-16 0-29-14-29-32 0-18 13-32 29-32l195 0z"/>
<glyph glyph-name="ice" unicode="&#35;" d="M380 195l-29 16c6 6 13 10 21 13 4 1 6 5 5 10-1 4-6 6-10 5-12-4-22-11-30-19l-65 36 65 36c8-9 18-15 30-19 4-1 9 1 10 5 1 4-1 9-5 10-8 3-15 7-21 13l29 16c4 2 5 7 3 11-2 4-7 5-11 3l-29-16c-2 8-2 16 0 23 0 5-2 9-7 10-4 1-9-2-9-6-3-12-2-25 1-36l-64-36 0 73c11 2 22 8 32 16 3 3 3 8 0 11-3 3-8 4-11 1-6-5-13-9-21-12l0 33c0 4-4 8-8 8-4 0-8-4-8-8l0-33c-8 3-15 6-21 12-3 3-8 2-11-1-3-3-3-8 1-11 9-8 19-14 31-16l0-73-64 36c3 11 4 24 1 36 0 4-5 7-9 6-5-1-7-5-7-10 2-8 2-15 0-23l-29 16c-4 2-9 1-11-3-2-4-1-9 3-11l29-16c-6-6-13-10-21-12-4-2-6-6-5-11 2-4 6-6 10-5 12 4 22 11 31 20l64-37-64-36c-8 8-19 15-31 19-4 1-8-1-10-5-1-4 1-9 5-10 8-3 15-7 21-13l-29-16c-4-2-5-7-3-11 2-4 7-5 11-3l29 17c2-9 2-16 1-24-1-5 2-9 6-10 4-1 9 2 10 7 2 11 1 23-2 35l64 36 0-73c-12-2-22-8-31-16-4-3-4-8-1-11 3-3 8-4 11-1 6 6 13 10 21 12l0-33c0-4 4-8 8-8 5 0 8 4 8 8l0 33c8-3 15-7 21-12 3-3 8-3 11 1 3 3 3 8 0 11-9 8-21 13-32 16l0 73 65-36c-4-12-5-24-2-36 1-4 5-7 9-6 5 1 8 5 7 10-2 8-2 15 0 23l29-16c4-2 9-1 11 3 2 4 1 9-3 11z"/>
<glyph glyph-name="dry" unicode="&#36;" d="M271 473c0 1-1 1-1 1 0 0 0 0 0 0-4 4-8 6-14 6-5 0-10-2-14-6 0 0 0 0 0 0 0 0 0 0-1-1-6-6-14-14-22-24-18-19-39-46-59-77-33-51-63-116-64-183 0-1 0-2 0-4 0-19 4-38 11-55 4-10 9-20 15-29 29-41 78-69 134-69 88 0 160 69 160 153 0 128-105 248-145 288z m-15-385c-16 0-31 4-44 10 66 14 119 65 136 130 5-13 8-26 8-40 0-55-45-100-100-100z"/>
<glyph glyph-name="qrcode" unicode="&#110;" d="M165 183l0-37-37 0 0 37z m0 219l0-36-37 0 0 36z m219 0l0-36-37 0 0 36z m-293-292l110 0 0 109-110 0z m0 219l110 0 0 110-110 0z m220 0l110 0 0 110-110 0z m-73-73l0-183-183 0 0 183z m146-146l0-37-37 0 0 37z m73 0l0-37-36 0 0 37z m0 146l0-110-110 0 0 37-36 0 0-110-37 0 0 183 110 0 0-37 37 0 0 37z m-219 219l0-182-183 0 0 182z m219 0l0-182-183 0 0 182z"/>
<glyph glyph-name="bell-on-disable" unicode="&#39;" d="M409 269c11-68 40-121 85-159 0-10-4-19-11-26-7-7-16-11-26-11l-128 0c0-20-7-37-21-52-15-14-32-21-52-21-20 0-37 7-52 21-14 14-21 32-21 52z m-153-246c3 0 5 1 5 4 0 3-2 5-5 5-11 0-21 4-29 12-8 8-12 18-12 29 0 3-2 5-5 5-3 0-4-2-4-5 0-14 5-26 14-35 10-10 22-15 36-15z m286 457c2-2 3-4 2-7 0-2-1-4-3-6l-534-464c-2-1-5-2-7-2-3 1-5 2-6 4l-24 27c-2 2-3 4-2 7 0 2 1 4 3 6l53 46c-4 6-6 12-6 19 10 8 18 16 26 25 8 9 16 20 25 34 8 14 15 29 21 45 6 16 10 36 14 59 4 23 6 48 6 74 0 29 11 56 33 81 22 25 52 40 88 45-2 4-2 8-2 12 0 7 2 14 8 19 5 5 11 8 19 8 8 0 14-3 19-8 6-5 8-12 8-19 0-4 0-8-2-12 24-3 45-11 63-23 18-12 32-27 42-45l119 104c2 1 5 2 7 2 3-1 5-2 6-4z"/>
<glyph glyph-name="bell-off-disable" unicode="&#42;" d="M261 27c0 3-2 5-5 5-11 0-21 4-29 12-8 8-12 18-12 29 0 3-2 5-5 5-3 0-4-2-4-5 0-14 5-26 14-35 10-10 22-15 36-15 3 0 5 1 5 4z m-154 136l251 217c-8 17-21 31-38 42-17 11-39 17-64 17-18 0-34-3-48-9-15-6-27-14-35-23-9-9-15-19-20-30-4-10-7-20-7-30 0-73-13-134-39-184z m387-53c0-10-4-19-11-26-7-7-16-11-26-11l-128 0c0-20-7-37-21-52-15-14-32-21-52-21-20 0-37 7-52 21-14 14-21 32-21 52l42 37 217 0c-32 35-54 79-65 131l32 28c11-68 40-121 85-159z m24 397l24-27c2-2 3-4 2-7 0-2-1-4-3-6l-534-464c-2-1-5-2-7-2-3 1-5 2-6 4l-24 27c-2 2-3 4-2 7 0 2 1 4 3 6l53 46c-4 6-6 12-6 19 10 8 18 16 26 25 8 9 16 20 25 34 8 14 15 29 21 45 6 16 10 36 14 59 4 23 6 48 6 74 0 29 11 56 33 81 22 25 52 40 88 45-2 4-2 8-2 12 0 7 2 14 8 19 5 5 11 8 19 8 8 0 14-3 19-8 6-5 8-12 8-19 0-4 0-8-2-12 24-3 45-11 63-23 18-12 32-27 42-45l119 104c2 1 5 2 7 2 3-1 5-2 6-4z"/>
<glyph glyph-name="chevron-left" unicode="&#45;" d="M214 256l167 174c4 4 4 11 0 16l-30 30c-4 5-11 5-16 1l-204-213c-2-2-3-5-3-8 0-3 1-6 3-8l204-213c5-4 12-4 16 0l30 31c4 4 4 11 0 16z"/>
<glyph glyph-name="edit" unicode="&#125;" d="M424 425c11-11 19-22 24-33 5-11 8-19 8-24 0 0 0-9 0-9 0 0-129-129-129-129 0 0-149-147-149-147 0 0-122-27-122-27 0 0 26 123 26 123 0 0 148 148 148 148 0 0 129 129 129 129 19 4 40-6 65-31m-253-328c0 0 12 13 12 13 0 15-9 31-26 48-8 7-16 13-23 18-8 4-14 6-18 6 0 0-7 1-7 1 0 0-12-12-12-12 0 0-9-41-9-41 10-5 17-11 24-17 8-9 14-17 18-25 0 0 41 9 41 9"/>
<glyph glyph-name="logout" unicode="&#43;" d="M283 77c0 0 0 51 0 51 0 0 50 0 50 0 0 0 0-51 0-51 0-14-5-26-15-36-10-10-22-15-36-15 0 0-205 0-205 0-14 0-26 5-36 15-10 10-15 22-15 36 0 0 0 358 0 358 0 15 5 27 15 37 10 9 22 14 36 14 0 0 205 0 205 0 14 0 26-5 36-14 10-10 15-22 15-37 0 0 0-77 0-77 0 0-50 0-50 0 0 0 0 77 0 77 0 0-206 0-206 0 0 0 0-358 0-358 0 0 206 0 206 0m203 167c0 0-101-101-101-101 0 0 0 62 0 62 0 0-230 0-230 0 0 0 0 77 0 77 0 0 230 0 230 0 0 0 0 61 0 61 0 0 101-99 101-99"/>
<glyph glyph-name="check" unicode="&#91;" d="M186 172l-90 91-32-31 122-122 262 261-32 31z"/>
<glyph glyph-name="done" unicode="&#93;" d="M421 246l0-91c0-22-8-42-25-58-16-16-35-24-58-24l-237 0c-23 0-42 8-59 24-16 16-24 36-24 58l0 238c0 23 8 42 24 58 17 16 36 24 59 24l237 0c12 0 23-2 34-7 3-1 4-3 5-6 0-4 0-6-3-9l-14-14c-2-1-4-2-6-2-1 0-2 0-3 0-4 1-9 2-13 2l-237 0c-13 0-24-5-33-14-9-9-13-19-13-32l0-238c0-12 4-23 13-32 9-9 20-13 33-13l237 0c13 0 24 4 33 13 9 9 13 20 13 32l0 73c0 2 1 5 3 6l18 19c2 1 4 2 6 2 2 0 3 0 4 0 4-2 6-5 6-9z m66 140l-233-233c-5-4-10-6-16-6-7 0-12 2-17 6l-122 123c-5 5-7 10-7 17 0 6 2 11 7 16l31 31c5 5 10 7 16 7 7 0 12-2 17-7l75-75 185 185c4 5 10 7 16 7 6 0 12-2 16-7l32-31c4-5 6-10 6-17 0-6-2-11-6-16z"/>
<glyph glyph-name="fence" unicode="&#94;" d="M53 386l45 45c2 2 6 2 9 0l45-45c1-1 2-3 2-5l0-317-103 0 0 317c0 2 1 4 2 5z m49-117c7 0 13 6 13 13 0 7-6 12-13 12-7 0-12-5-12-12 0-7 5-13 12-13z m0-128c7 0 13 6 13 13 0 7-6 12-13 12-7 0-12-5-12-12 0-7 5-13 12-13z m-101 367l0-24 6 0 0 24-3 3z m3-10c-1 0-2 1-2 2 0 1 1 2 2 2 1 0 2-1 2-2 0-1-1-2-2-2z m0-10c-1 0-2 1-2 2 0 1 1 2 2 2 1 0 2-1 2-2 0-1-1-2-2-2z m203-102l44 45c3 2 7 2 10 0l44-45c2-1 2-3 2-5l0-317-102 0 0 317c0 2 0 4 2 5z m49-117c7 0 13 6 13 13 0 7-6 12-13 12-7 0-13-5-13-12 0-7 6-13 13-13z m0-128c7 0 13 6 13 13 0 7-6 12-13 12-7 0-13-5-13-12 0-7 6-13 13-13z m-243 367l0-24 6 0 0 24-3 3z m3-10c-1 0-2 1-2 2 0 1 1 2 2 2 1 0 2-1 2-2 0-1-1-2-2-2z m0-10c-1 0-2 1-2 2 0 1 1 2 2 2 1 0 2-1 2-2 0-1-1-2-2-2z m344-102l45 45c3 2 7 2 9 0l45-45c1-1 2-3 2-5l0-317-103 0 0 317c0 2 1 4 2 5z m50-117c7 0 12 6 12 13 0 7-5 12-12 12-7 0-13-5-13-12 0-7 6-13 13-13z m0-128c7 0 12 6 12 13 0 7-5 12-12 12-7 0-13-5-13-12 0-7 6-13 13-13z m-385 367l0-24 6 0 0 24-3 3z m3-10c-1 0-2 1-2 2 0 1 1 2 2 2 1 0 2-1 2-2 0-1-1-2-2-2z m0-10c-1 0-2 1-2 2 0 1 1 2 2 2 1 0 2-1 2-2 0-1-1-2-2-2z m126-168l0-192 51 0 0 192z m-26 26l102 0 0-244-102 0z m179-218l51 0 0 192-51 0z m-25 218l102 0 0-244-102 0z"/>
<glyph glyph-name="fire" unicode="&#95;" d="M224 142c0-1 0-1 0-2 0-23 17-42 38-42 21 0 39 19 39 41 0 1 0 2 0 4-2 17-6 26-18 43-3 5-7 11-11 19-5-7-7-13-8-17-2-9-3-18-3-32 0-8-6-14-14-14-9 0-16 3-22 9-1-3-1-6-1-9z m38-57c-28 0-51 25-51 54 0 2 0 3 0 4 0 8 2 15 4 21 1 4 6 7 10 5 2 0 4-2 5-3 4-8 10-11 17-11 1 0 1 0 1 1 0 15 1 25 3 35 2 7 7 17 15 29 2 4 7 4 11 2 1-1 2-2 2-3 6-12 11-20 14-25 14-20 19-31 20-50 1-2 1-3 1-5 0-29-23-54-52-54z m-57 195c1 20 4 38 8 56 10 41 40 83 75 108 6 5 14 5 21 2 7-4 11-11 11-18 0-21 6-37 21-59 4-5 7-10 14-20 4-5 6-8 9-11 28-38 42-69 45-112 0-1 0-3 0-6 0-1 0-1 0-2 1-3 1-5 1-7 0-81-66-147-147-147l0 13 3-13c-3 0-4 0-4 0-81 0-147 66-147 147 0 4 0 6 0 8 1 36 10 64 24 83 8 13 18 21 25 24 6 3 13 3 18 0 6-3 10-8 11-15 1-11 6-23 12-31z m-29 0c-3 7-5 13-7 19-3-3-6-6-9-11-11-16-18-38-19-70 0-2 0-3 0-7 0-67 54-121 121-121 0 0-1-1-2-1l2 1c1 0 1 0 1 0 67 0 121 54 121 121 0 1 0 3 0 6 0 1 0 1 0 2 0 2-1 4-1 5-3 38-15 64-40 99-2 3-4 6-8 11-8 11-11 15-15 21-15 22-23 41-25 62-27-22-49-56-57-88-6-20-7-43-8-72l0-16-15 3c-18 4-31 17-39 36z m87-190c0 0 0 0 0 0 0 0 0 0-1 0 0 0 0 0 0 0l1 0z"/>
<glyph glyph-name="gas" unicode="&#96;" d="M256 51c-113 0-205 92-205 205 0 113 92 205 205 205 113 0 205-92 205-205 0-113-92-205-205-205z m0 26c99 0 179 80 179 179 0 99-80 179-179 179-99 0-179-80-179-179 0-99 80-179 179-179z m138 48c-37 35-86 54-138 54-53 0-103-20-141-56l17-19c33 32 77 50 124 50 45 0 88-17 121-48z m-330 125l38 0c4 0 7 2 7 6 0 4-3 6-7 6l-38 0c-4 0-6-2-6-6 0-4 2-6 6-6z m346 0l38 0c4 0 6 2 6 6 0 4-2 6-6 6l-38 0c-4 0-7-2-7-6 0-4 3-6 7-6z m-106 55c-6 6-29 25-37 47-1 3-3 5-6 6-2 1-4 0-5 0-1 0-2-1-3-2-15-12-18-33-10-61l0 0c-10 1-14 5-18 11-1 2-4 4-6 4-3 1-6 0-8-2-4-4-8-9-11-15-24-47 12-92 56-92 50 0 87 59 48 104z m-54 143l0-38c0-4 2-7 6-7 4 0 6 3 6 7l0 38c0 4-2 6-6 6-4 0-6-2-6-6z"/>
<glyph glyph-name="human" unicode="&#124;" d="M192 185c-3 0-6-1-9-2-11-7-33-18-56-24-1 0-1-1-1-1-35-11-36-48-36-64 0-1 0-1 0-2l0 0c0-4-1-26 4-36 0-2 2-4 4-5 2-2 59-38 155-38 96 0 153 36 155 38 2 1 4 3 4 5 4 10 4 32 4 36l0 0c0 1 0 1 0 2 0 16-1 53-36 64 0 0 0 0-1 1-24 6-45 17-56 24-3 1-6 2-9 2-4 0-7-1-10-3-15-11-33-16-51-16-18 0-36 5-51 16l0 0c-3 2-6 3-10 3m0-27c18-11 39-18 61-18 22 0 43 7 61 18 14-8 35-18 58-24 15-5 18-19 19-41 0 0 0-1 0-1l0 0 0-1c0-7-1-16-2-22-15-8-63-31-136-31-73 0-122 24-137 32 0 5-1 13-1 21 0 1 0 2 0 3 1 21 4 35 19 40 23 6 43 16 58 24m62 239l-2 0c-8 0-26-2-42-11-17-10-37-30-39-73-1-5-6-64 25-99 13-16 32-24 56-24l2 0c23 0 42 8 56 24 31 35 26 94 25 99-2 43-22 63-38 73-13 7-27 10-43 11m0-26c11 0 21-3 30-8 16-9 24-26 26-51l0 0 0-1c2-18 0-59-19-80-9-10-21-15-37-16l-2 0c-16 1-28 6-37 16-19 21-21 62-19 80l0 1 0 0c1 25 10 42 26 52 12 6 25 7 30 7l2 0m-163 137c1-2 2-4 1-6-4-41-41-71-81-67-5 1-8 5-8 9 1 5 5 8 10 8 31-3 60 20 63 51 1 5 5 8 9 7 2 0 4-1 6-2z m62-4c1-2 2-4 2-6-8-71-73-124-145-117-4 1-7 4-6 9 0 4 4 7 8 7 63-6 120 40 128 103 0 4 4 7 8 7 2 0 4-2 5-3z m65 2c1-2 2-4 2-6-7-113-104-191-215-175-5 1-8 5-8 10 0 4 4 7 9 7 102-16 191 56 198 160 0 4 4 8 8 7 2 0 4-2 6-3z m-192-26c-14 0-26 11-26 25l0 7 51 0 0-7c0-14-11-25-25-25z"/>
<glyph glyph-name="rain" unicode="&#126;" d="M38 288c0-50 39-92 89-96 7 0 13 5 14 12 0 7-5 13-12 14-37 3-65 33-65 70 0 38 30 69 67 70l10 1 2 9c11 47 52 80 100 80 34 0 66-17 85-44 2-4 4-8 6-11 3-7 11-9 17-6 7 3 9 11 6 17-3 5-5 10-8 14-24 35-63 56-106 56-57 0-106-38-122-91-47-7-83-47-83-95z m319-82c5-1 10-1 14-1 57 0 103 46 103 102 0 57-46 103-103 103-12 0-24-3-35-7-20-7-37-20-49-37-4-6-2-14 3-18 6-4 14-3 18 3 9 13 22 23 37 28 8 3 17 5 26 5 43 0 77-34 77-77 0-42-34-77-77-77-3 0-7 1-11 1-7 1-13-4-14-11-1-7 4-13 11-14z m-107 1l-16-49c-1-3 0-7 4-8 3-1 7 1 8 4l16 49c1 3-1 7-4 8-3 1-7-1-8-4z m-26-90l-16-48c-1-4 1-7 4-8 4-2 7 0 8 4l16 48c2 4 0 7-4 8-3 1-7 0-8-4z m90 90l-16-49c-1-3 0-7 4-8 3-1 7 1 8 4l16 49c1 3-1 7-4 8-3 1-7-1-8-4z m-26-90l-16-48c-1-4 1-7 4-8 4-2 7 0 8 4l16 48c2 4 0 7-4 8-3 1-7 0-8-4z m-102 90l-16-49c-1-3 0-7 4-8 3-1 7 1 8 4l16 49c1 3-1 7-4 8-3 1-7-1-8-4z m-26-90l-16-48c-1-4 1-7 4-8 4-2 7 0 8 4l16 48c2 4 0 7-4 8-3 1-7 0-8-4z"/>
<glyph glyph-name="smoke" unicode="&#92;" d="M380 459c52-11 85-62 74-113-7-34-32-62-65-72 0-1-1-2-1-3-6-27-23-50-50-64-24-13-54-17-83-11-11 3-22 6-32 11-19-15-42-23-66-23-7 0-15 1-22 2-27 6-51 22-66 46-16 23-21 52-16 79 4 18 13 35 25 49-4 15-4 31-1 46 7 33 29 60 60 77 30 16 66 20 101 13 32-7 61-23 81-45 19 9 40 12 61 8z m-5-25c-18 3-36 0-52-10-5-3-13-2-17 3-17 22-43 38-73 44-30 6-59 2-84-11-25-13-41-34-47-59-2-13-2-27 3-41 1-4 0-10-4-13-11-11-19-25-22-41-5-21-1-42 11-60 12-18 30-30 51-35 5-1 11-1 16-1 21 0 41 8 55 22 5 4 11 5 16 2 10-6 21-10 33-13 23-4 46-2 65 9 20 10 33 26 37 46 1 3 1 6 1 9 1 6 5 11 11 12 27 5 49 27 54 54 8 38-16 75-54 83z m-147-252c0-1-1-4-2-6-2-8-3-16-1-23 1-6 4-12 8-16 2-3 4-5 8-9l1 0c17-16 22-24 20-39-1-10-4-18-10-24-3-4-7-7-9-8-4-2-5-5-3-9 1-3 5-4 8-3 4 2 9 6 14 11 7 9 12 19 13 31 2 21-5 32-24 50l-1 1c-4 3-6 5-8 8-2 2-4 6-5 9-1 6 0 11 1 17 1 2 2 4 2 5 1 3 0 7-3 8-4 1-7 0-9-3z m-42-29c0-5 3-12 10-19 5-5 11-9 19-12 4-1 7 1 9 4 1 3-1 7-4 8-7 2-11 5-15 9-5 4-6 9-7 11 0 4-3 6-7 6-3 0-6-4-5-7z m112-54c0 0 1-1 1-3 4-12 2-26-10-41-2-3-1-7 2-9 2-2 6-1 9 1 14 19 16 37 12 53-1 2-2 4-2 5-2 4-6 5-9 3-3-2-4-5-3-9z"/>
<glyph glyph-name="temp" unicode="&#57344;" d="M316 230c35-28 51-75 38-119-18-70-96-106-162-73-42 20-67 65-64 110 3 33 18 62 43 82 5 5 8 11 8 17l0 169c0 32 29 58 64 58 35 0 64-26 64-58l0-169c0-6 3-12 9-17z m-16-20c-12 9-18 23-18 37l0 169c0 17-17 32-39 32-21 0-38-15-38-32l0-169c0-14-7-28-18-37-19-15-31-38-33-63-3-36 17-71 49-86 52-26 112 2 127 56 9 35-3 71-30 93z m-34 10l0 102c0 13-10 24-24 24-13 0-23-11-23-24l0-102c0-11-6-23-15-30-17-13-28-35-24-60 4-27 27-49 55-53 38-4 71 26 71 63 0 21-10 39-26 50-9 7-14 19-14 30z m92 222l52 0c3 0 6 2 6 6 0 4-3 6-6 6l-52 0c-3 0-6-2-6-6 0-4 3-6 6-6z m0-77l52 0c3 0 6 3 6 6 0 4-3 7-6 7l-52 0c-3 0-6-3-6-7 0-3 3-6 6-6z m0-77l52 0c3 0 6 3 6 6 0 4-3 7-6 7l-52 0c-3 0-6-3-6-7 0-3 3-6 6-6z m0 115l26 0c4 0 6 3 6 7 0 3-2 6-6 6l-26 0c-3 0-6-3-6-6 0-4 3-7 6-7z m0-77l26 0c4 0 6 3 6 7 0 3-2 6-6 6l-26 0c-3 0-6-3-6-6 0-4 3-7 6-7z"/>
<glyph glyph-name="glass" unicode="&#123;" d="M79 432l0-352 354 0 0 352z m0 29l354 0c16 0 28-13 28-29l0-352c0-16-12-29-28-29l-354 0c-16 0-28 13-28 29l0 352c0 16 12 29 28 29z m160-150l55 46c4 4 5 8 3 11-3 3-7 2-11-1l-55-46c-4-3-5-8-3-11 2-2 7-2 11 1z m13-153l55 46c4 3 5 8 3 10-3 3-8 3-11 0l-55-47c-4-3-5-7-3-10 2-3 7-3 11 1z m-71 21c0 0 56 47 169 142 12 10 12 14 10 16-3 3-6 4-18-6l-169-142c-12-10-11-13-9-15 3-3 5-5 17 5z"/>
<glyph glyph-name="back-home" unicode="&#57346;" d="M276 421l178-118c10-7 16-18 16-30l0-230c0-10-8-18-18-18l-107 0c-10 0-18 8-18 18l0 142c0 10-8 18-18 18l-106 0c-10 0-18-8-18-18l0-142c0-10-8-18-18-18l-107 0c-10 0-18 8-18 18l0 230c0 12 6 23 16 30l178 118c12 8 28 8 40 0z m176-37l56-38c4-3 5-8 2-12l-10-15c-2-4-8-5-12-3l-212 144c-12 9-28 9-40 0l-212-144c-4-2-10-1-12 3l-10 15c-3 4-2 9 2 12l212 144c24 16 56 16 80 0l103-70 0 38c0 5 4 9 8 9l36 0c5 0 9-4 9-9z m-167-292c-10 0-18 8-18 18 0 10 8 18 18 18 10 0 18-8 18-18 0-10-8-18-18-18z"/>
<glyph glyph-name="bed-time" unicode="&#57347;" d="M340 362c1 0 3-1 3-3 0-1-2-2-3-2-25 0-44-20-44-45 0-1-2-2-3-2-2 0-3 1-3 2 0 25-20 45-44 45-2 0-3 1-3 2 0 2 1 3 3 3 24 0 44 20 44 44 0 2 1 3 3 3 1 0 3-1 3-3 0-24 19-44 44-44z m32-117c-11 0-19 9-19 19 0 10 8 19 19 19 10 0 18-9 18-19 0-10-8-19-18-19z m-90-100l29-7c12-2 25-3 38-3 48 0 93 15 131 44 5 3 12 3 16-1 5-3 7-10 4-16-20-44-52-81-92-107-42-28-90-42-140-42-141 0-255 115-255 255 0 50 14 98 42 140 26 40 63 72 107 92 6 3 12 1 16-4 4-4 4-11 1-16-29-38-44-83-44-131 0-95 61-175 147-204z m11 97c-6 0-11 5-11 11 0 6 5 11 11 11 6 0 11-5 11-11 0-6-5-11-11-11z m71 172c-6 0-11 5-11 11 0 6 5 11 11 11 6 0 11-5 11-11 0-6-5-11-11-11z"/>
<glyph glyph-name="change-cloth" unicode="&#57348;" d="M443 295l-169 63 0-15c32 9 56 38 56 74 0 42-35 77-77 77-21 0-50-16-66-40-4-6-4-14-1-20 3-7 10-11 17-11 7 0 13 4 17 10 6 12 21 21 33 21 20 0 37-17 37-37 0-21-37-51-56-56-12-4-69-26-171-66-30-12-49-41-49-72l0-13c0-35 28-66 63-66 9 0 16 7 16 16l0 8c0 9-7 16-16 16-13 0-24 13-24 26l0 13c0 15 10 29 24 34l176 67 176-67c14-5 23-19 23-34l0-13c0-13-10-26-24-26-8 0-15-7-15-15l0-10c0-8 7-15 15-15 36 0 64 31 64 66l-1 13c0 31-19 60-48 72z m-91-274l-199 0c-16 0-29 13-29 29l0 133c0 16 13 29 29 29l199 0c16 0 29-13 29-29l0-133c0-16-13-29-29-29z"/>
<glyph glyph-name="close-curtant" unicode="&#57349;" d="M88 437c16 0 28-13 28-28l0-306c0-15-12-28-28-28-15 0-28 13-28 28l0 306c0 15 13 28 28 28z m112 0c16 0 28-13 28-28l0-306c0-15-12-28-28-28-15 0-28 13-28 28l0 306c0 15 13 28 28 28z m-56 0c16 0 28-13 28-28l0-306c0-15-12-28-28-28-15 0-28 13-28 28l0 306c0 15 13 28 28 28z m224 0c15 0 28-13 28-28l0-306c0-15-13-28-28-28-16 0-28 13-28 28l0 306c0 15 12 28 28 28z m-56 0c15 0 28-13 28-28l0-306c0-15-13-28-28-28-16 0-28 13-28 28l0 306c0 15 12 28 28 28z m-56 0c15 0 28-13 28-28l0-306c0-15-13-28-28-28-15 0-28 13-28 28l0 306c0 15 13 28 28 28z m168 0c15 0 28-13 28-28l0-306c0-15-13-28-28-28-16 0-28 13-28 28l0 306c0 15 12 28 28 28z m65-30l8 0c8 0 15-7 15-15l0-16c0-8-7-15-15-15l-8 0c-4 0-7 4-7 8l0 30c0 4 3 8 7 8z m-474 0l8 0c4 0 7-4 7-8l0-30c0-4-3-8-7-8l-8 0c-8 0-15 7-15 15l0 16c0 8 7 15 15 15z"/>
<glyph glyph-name="dinner" unicode="&#57350;" d="M168 197l19 2c6 0 12-2 16-7l8-8c7-8 7-20-1-27l-133-133c-6-6-15-6-21 0l-32 32c-6 6-6 15 0 21l108 108c8 8 18 12 29 12 1 0 1 0 1 0 2 0 4 0 6 0z m320 195c6-6 6-15 0-21l-88-88c-14-14-37-21-70-21-6-1-11 1-15 5l-48 48c-3 4-5 9-5 14 1 34 8 57 21 70l88 89c6 6 15 6 21 0 6-6 6-15 0-21l-79-78c-7-8-7-20 0-27 8-8 20-8 27 0l79 78c6 6 15 6 21 0 6-6 6-16 0-22l-78-78c-8-7-8-19 0-27 7-7 19-7 27 0l79 79c5 6 14 6 20 0z m-430 88l398-398c3-4 5-8 5-12 0-4-2-8-5-11l-33-33c-3-3-7-5-11-5-5 0-9 2-12 6l-184 198c-4 5-10 7-16 7l-35-3c-1 0-2 0-3 0-10 0-20 4-28 11l-75 76c-42 42-53 106-27 160 2 4 6 8 12 8 0 1 1 1 2 1 4 0 9-2 12-5z"/>
<glyph glyph-name="guest" unicode="&#57352;" d="M382 20c-14 0-25 11-25 25l0 15c0 6 4 10 10 10l15 0c24 0 40 4 48 11l4-4c-1-1-2-2-2-3l0-29c0-14-11-25-25-25z m-276 0c-14 0-25 11-25 25l0 20c0 6 4 10 9 10 2 0 3 0 4 0 9-3 21-5 37-5l15 0c5 0 10-4 10-10l0-15c0-14-11-25-25-25z m397 263c0-26-18-49-43-55l-11-93c-11-39-67-40-67-40l-251 0c0 0-56 1-68 40l-10 93c-25 6-43 29-43 55 0 33 26 59 58 59 26 0 48-18 55-42l20-44c1-1 1-2 1-2 4-5 10-5 14-2l0 0c16 12 49 17 100 17 49 0 82-5 97-16 0-1 1-1 1-1 5-3 11 0 13 5l21 47c9 22 30 38 55 38 32 0 58-26 58-59z m-435 89c0 0 0 0-1 0-4 0-7 4-6 8l0 0c4 75 45 112 120 112 8 0 142 0 151 0 73 0 113-37 120-112 0-1 0-1 0-1 0-4-3-7-7-7-36 0-69-23-82-57l-11-23c-2-5-8-7-12-5-23 8-50 13-82 13-33 0-61-5-85-14-5-2-10 0-13 5l0 0-8 19c-12 37-46 62-84 62z"/>
<glyph glyph-name="open-curtant" unicode="&#57353;" d="M75 437c9 0 15-7 15-15l0-332c0-8-6-15-15-15-8 0-15 7-15 15l0 332c0 8 7 15 15 15z m30 0c9 0 15-7 15-15l0-332c0-8-6-15-15-15-8 0-15 7-15 15l0 332c0 8 7 15 15 15z m332 0c8 0 15-7 15-15l0-332c0-8-7-15-15-15-9 0-15 7-15 15l0 332c0 8 6 15 15 15z m-301 0c8 0 15-7 15-15l0-332c0-8-7-15-15-15-9 0-16 7-16 15l0 332c0 8 7 15 16 15z m30 0c8 0 15-7 15-15l0-332c0-8-7-15-15-15-9 0-15 7-15 15l0 332c0 8 6 15 15 15z m210 0c9 0 16-7 16-15l0-332c0-8-7-15-16-15-8 0-15 7-15 15l0 332c0 8 7 15 15 15z m-30 0c9 0 15-7 15-15l0-332c0-8-6-15-15-15-8 0-15 7-15 15l0 332c0 8 7 15 15 15z m61 0c8 0 15-7 15-15l0-332c0-8-7-15-15-15-9 0-15 7-15 15l0 332c0 8 6 15 15 15z m82-30l8 0c8 0 15-7 15-15l0-16c0-8-7-15-15-15l-8 0c-4 0-7 4-7 8l0 30c0 4 3 8 7 8z m-474 0l8 0c4 0 7-4 7-8l0-30c0-4-3-8-7-8l-8 0c-8 0-15 7-15 15l0 16c0 8 7 15 15 15z m200 0l82 0c2 0 4-2 4-5l0-36c0-3-2-5-4-5l-82 0c-2 0-4 2-4 5l0 36c0 3 2 5 4 5z"/>
<glyph glyph-name="party" unicode="&#57354;" d="M276 45l0 123c105 12 180 99 180 198 0 38-11 85-29 130-4 10-13 16-24 16l-297 0c-11 0-20-6-24-16-17-41-29-89-29-134 2-98 76-183 180-194l0-123c-41-4-73-11-98-22-5-3-9-8-9-14 0-5 5-9 10-9l237 0c5 0 9 4 9 9 0 6-3 11-8 14-25 11-57 18-98 22z m-162 430l280 0c4 0 8-3 10-7 3-12 6-21 8-27 8-32 13-64 13-89 0-5-1-11-1-18l0 0c-1-4-4-7-7-6 0 0-1 0-1 0-16 2-30 1-39-3-43-17-71-28-114-9-43 19-71 104-123 98-5-1-11-3-18-5-11-4-24 2-27 13-2 4-2 8-1 12 1 3 1 6 2 8 2 6 4 15 7 26l0 0c2 4 6 7 11 7z"/>
<glyph glyph-name="present" unicode="&#57355;" d="M139 103l-86 0c-11 0-20 9-20 21l0 266c0 11 9 20 20 20l404 0c12 0 21-9 21-20l0-266c0-12-9-21-21-21l-86 0 51-84c1-2 2-4 2-6 0-7-6-13-13-13l-11 0c-7 0-14 4-17 10l-56 93-144 0-55-93c-4-6-11-10-18-10l-11 0c-7 0-12 6-12 13 0 2 0 4 1 6z m56 389l-175 0c-5 0-10-5-10-11l0-20c0-6 5-10 10-10l470 0c5 0 10 4 10 10l0 20c0 6-5 11-10 11l-173 0 0 10c0 5-4 10-10 10l-102 0c-6 0-10-5-10-10z"/>
<glyph glyph-name="reading" unicode="&#57356;" d="M240 81c-1-9-8-16-17-16-3 0-6 0-8 2-28 15-59 23-91 23-31 0-62-8-90-23-8-5-18-2-23 6-1 2-2 5-2 8l0 279c0 43 52 79 115 79 64 0 116-36 116-79z m263 0c0-9-8-16-17-16-3 0-5 0-8 2-28 15-59 23-90 23-32 0-63-8-91-23-8-5-18-2-22 6-2 2-3 5-3 8l0 279c0 43 52 79 116 79 63 0 115-36 115-79z"/>
<glyph glyph-name="relax" unicode="&#57357;" d="M390 146c-12-28-29-53-50-73-44-36-90-54-139-54-49 0-94 18-135 54-40 38-66 93-66 154l0 90c0 15 12 28 26 28l389 0c53 0 97-45 97-100 0-55-44-99-97-99z m13 73c0-13-1-26-2-38 10 0 15 0 15 0 34 0 63 29 63 64 0 36-29 64-63 64-7 0-13-5-13-12z m-201 227c7-7 17-17 17-36 0-7-6-13-13-13-8 0-13 6-13 13 0 8-3 11-10 17-7 7-17 17-17 36 0 18 10 28 17 35 5 5 14 5 19 0 5-5 5-13 0-18-7-7-9-10-9-17 0-8 2-11 9-17z m87 0c8-7 17-17 17-36 0-7-6-13-13-13-7 0-13 6-13 13 0 8-3 11-9 17-7 7-17 17-17 36 0 18 10 28 17 35 5 5 13 5 18 0 5-5 5-13 0-18-6-7-9-10-9-17 0-8 3-11 9-17z m-175 0c7-7 17-17 17-36 0-7-6-13-13-13-7 0-13 6-13 13 0 8-3 11-9 17-7 7-17 17-17 36 0 18 10 28 17 35 5 5 13 5 18 0 5-5 5-13 0-18-6-7-9-10-9-17 0-8 3-11 9-17z"/>
<glyph glyph-name="sun-rise" unicode="&#57358;" d="M473 149c-3-7-10-11-18-11l-405 0c-8 0-15 4-18 11-1 3-3 6-3 8-12 28-19 60-19 93 0 134 108 242 242 242 134 0 243-108 243-242 0-33-7-65-19-93-1-2-2-5-3-8z m-359-51l283 0c5 0 10-4 10-9 0-6-5-10-10-10l-283 0c-5 0-10 4-10 10 0 5 5 9 10 9z m57-59l169 0c6 0 10-4 10-9 0-6-4-10-10-10l-169 0c-6 0-10 4-10 10 0 5 4 9 10 9z"/>
<glyph glyph-name="message" unicode="&#57351;" d="M173 237c-11 0-19 8-19 19 0 11 8 19 19 19 10 0 19-8 19-19 0-11-9-19-19-19z m89 0c-10 0-19 8-19 19 0 11 9 19 19 19 11 0 20-8 20-19 0-11-9-19-20-19z m90 0c-11 0-19 8-19 19 0 11 8 19 19 19 11 0 19-8 19-19 0-11-8-19-19-19z m-134 185c-71 0-128-57-128-128l0-81c0-68 54-122 121-122l98 0c36 0 72-8 105-22 0 0 1-1 2-1 4 0 6 3 6 7l0 219c0 71-57 128-128 128z m0 26l76 0c85 0 154-69 154-154l0-219c0-18-14-32-32-32-4 0-9 1-13 3-29 13-61 19-94 19l-98 0c-81 0-147 66-147 148l0 81c0 85 69 154 154 154z"/>
<glyph glyph-name="switch-1" unicode="&#57359;" d="M148 435c-39 0-71-32-71-71 0-40 32-72 71-72l59 0c7 0 13 6 13 13l0 59c0 39-32 71-72 71z m0 26c54 0 97-44 97-97l0-59c0-21-17-38-38-38l-59 0c-53 0-97 43-97 97 0 53 44 97 97 97z m0-241c-39 0-71-32-71-72 0-39 32-71 71-71 40 0 72 32 72 71l0 72z m0 25l72 0c14 0 25-11 25-25l0-72c0-53-43-97-97-97-53 0-97 44-97 97 0 54 44 97 97 97z m144 119l0-72 72 0c39 0 71 32 71 72 0 39-32 71-71 71-40 0-72-32-72-71z m72 97c53 0 97-44 97-97 0-54-44-97-97-97l-72 0c-14 0-25 11-25 25l0 72c0 53 43 97 97 97z m-72-241l0-72c0-39 32-71 72-71 39 0 71 32 71 71 0 40-32 72-71 72z m0 25l72 0c53 0 97-43 97-97 0-53-44-97-97-97-54 0-97 44-97 97l0 72c0 14 11 25 25 25z"/>
<glyph glyph-name="time" unicode="&#57360;" d="M256 90c92 0 166 74 166 166 0 92-74 166-166 166-92 0-166-74-166-166 0-92 74-166 166-166z m0-26c-106 0-192 86-192 192 0 106 86 192 192 192 106 0 192-86 192-192 0-106-86-192-192-192z m6 198l0 84c0 3-2 6-6 6-4 0-6-3-6-6l0-90c0-4 2-6 6-6l90 0c3 0 6 2 6 6 0 4-3 6-6 6z"/>
<glyph glyph-name="trigger" unicode="&#57361;" d="M141 422c-14 0-26-11-26-25l0-282c0-14 12-25 26-25l77 0c14 0 25 11 25 25l0 282c0 14-11 25-25 25z m0 26l77 0c28 0 51-23 51-51l0-282c0-28-23-51-51-51l-77 0c-28 0-51 23-51 51l0 282c0 28 23 51 51 51z m-26-96l128 0c4 0 7 3 7 6 0 4-3 7-7 7l-128 0c-3 0-6-3-6-7 0-3 3-6 6-6z m0-205l128 0c4 0 7 3 7 7 0 3-3 6-7 6l-128 0c-3 0-6-3-6-6 0-4 3-7 6-7z m243 211c-7 0-12-5-12-12l0-180c0-7 5-12 12-12l26 0c7 0 13 5 13 12l0 180c0 7-6 12-13 12z m0 26l26 0c21 0 38-17 38-38l0-180c0-21-17-38-38-38l-26 0c-21 0-38 17-38 38l0 180c0 21 17 38 38 38z"/>
<glyph glyph-name="connect" unicode="&#57363;" d="M152 407c9 8 24 7 34-3l219-212c10-9 12-24 3-33-8-8-24-7-34 3l-219 212c-10 9-11 24-3 33z m-57-58c9 8 24 7 34-3l219-212c10-9 12-24 3-33-9-8-24-7-34 3l-219 212c-10 9-11 24-3 33z m-85-298l59 58c10 10 27 10 37 0 10-9 10-26 0-36l-59-58c-10-10-26-10-36 0-11 10-11 26-1 36z m392 390l64 63c10 10 27 10 37 1 10-10 10-26 0-36l-64-64c-10-10-27-10-37 0-10 10-10 26 0 36z m-280-136c-73-71-109-143-36-213 73-71 146-35 218 37z m81 82c73 72 145 108 218 37 73-70 37-142-35-213z"/>
<glyph glyph-name="go-out" unicode="&#57345;" d="M158 394l0 20c0 32 26 59 59 59l78 0c33 0 59-27 59-59l0-20 30 0c5 0 10-5 10-10l0-335c0-5-5-10-10-10l-256 0c-5 0-10 5-10 10l0 335c0 5 5 10 10 10z m39 0l118 0 0 20c0 10-9 19-20 19l-78 0c-11 0-20-9-20-19z m-158 0l30 0c5 0 10-5 10-10l0-335c0-5-5-10-10-10l-30 0c-21 0-39 18-39 40l0 275c0 22 18 40 39 40z m404 0l30 0c21 0 39-18 39-40l0-275c0-22-18-40-39-40l-30 0c-5 0-10 5-10 10l0 335c0 5 5 10 10 10z"/>
</font>
</defs>
</svg>
